<?xml version="1.0" encoding="UTF-8" standalone="no"?>
<!-- Created with Inkscape (http://www.inkscape.org/) -->

<svg
   width="237.03665mm"
   height="79.375mm"
   viewBox="0 0 237.03665 79.375"
   version="1.1"
   id="svg4170"
   xmlns:inkscape="http://www.inkscape.org/namespaces/inkscape"
   xmlns:sodipodi="http://sodipodi.sourceforge.net/DTD/sodipodi-0.dtd"
   xmlns="http://www.w3.org/2000/svg"
   xmlns:svg="http://www.w3.org/2000/svg">
  <sodipodi:namedview
     id="namedview4172"
     pagecolor="#ffffff"
     bordercolor="#000000"
     borderopacity="0.25"
     inkscape:showpageshadow="2"
     inkscape:pageopacity="0.0"
     inkscape:pagecheckerboard="0"
     inkscape:deskcolor="#d1d1d1"
     inkscape:document-units="mm"
     showgrid="false" />
  <defs
     id="defs4167" />
  <g
     inkscape:label="Capa 1"
     inkscape:groupmode="layer"
     id="layer1"
     transform="translate(-29.981677,-65.312502)">
    <g
       id="g4655"
       transform="matrix(2.3703655,0,0,2.3703655,-71.446469,-133.64698)">
      <path
         d="m 46.18457,114.13959 c -0.42055,-0.15293 -1.14697,-0.38233 -1.60574,-0.57348 -1.10874,-0.3441 -1.14697,-1.56753 -0.0765,-1.91159 1.07049,-0.34412 0.68816,-1.18522 -0.49704,-1.0323 -0.87933,0.11485 -0.99402,-0.0382 -1.18519,-1.33811 -0.0765,-0.80288 0,-1.60574 0.15292,-1.79692 0.19117,-0.22937 0.3441,-0.8411 0.3441,-1.37634 0,-0.53526 0.15293,-1.14697 0.34409,-1.33813 0.68818,-0.7264 0.64995,-3.02033 -0.0765,-3.63205 -0.91756,-0.76466 -0.99402,-3.937899 -0.11471,-4.931948 0.80287,-0.879326 0.91758,-3.70851 0.26763,-6.155347 -0.76464,-2.90564 -0.87933,-3.784973 -0.64995,-4.779035 0.30587,-1.185171 0.99403,-1.261628 1.03227,-0.0765 0,0.458783 0.1147,0.611715 0.22938,0.382346 0.0765,-0.26763 0.57349,-0.497031 1.0705,-0.497031 0.4588,0 1.0705,-0.26763 1.33813,-0.573481 0.61173,-0.764629 2.29392,-0.764629 2.29392,0 0,0.305851 0.42056,0.649944 0.95582,0.802882 0.99404,0.229376 1.10872,0.458771 0.72641,1.452807 -0.34411,0.879346 -2.29394,0.764629 -3.17328,-0.191154 -0.7264,-0.802882 -0.7264,-0.802882 -1.14695,-0.03829 -0.26763,0.497031 -0.26763,0.841111 0.0765,1.185203 0.53524,0.535259 -0.2294,1.185203 -1.33813,1.185203 -0.49701,0 -0.68819,0.305852 -0.68819,1.14695 0,1.223438 0.68819,1.529289 1.60576,0.649956 0.61172,-0.573474 2.48509,-1.796906 2.79094,-1.796906 0.1147,0 0.19117,0.34408 0.19117,0.726401 0,0.879345 0.6117,1.376363 0.9558,0.80287 0.15291,-0.229395 0.0383,-0.688173 -0.22941,-0.994024 -0.22938,-0.305858 -0.3823,-0.5735 -0.30585,-0.649938 1.60574,-0.917567 1.87337,-0.955821 3.44087,-0.573487 2.33215,0.535246 3.40268,1.7969 3.40268,3.976126 0,1.758672 -0.45879,2.179227 -1.14698,0.955815 -0.76465,-1.491067 -1.56752,-1.949845 -3.28794,-1.949845 -1.45285,0 -1.87337,0.191142 -3.21149,1.529271 -0.84112,0.841117 -1.52929,1.758696 -1.52929,1.988072 0,0.267636 0.45879,0.841111 1.03225,1.223425 0.99405,0.72642 0.99405,0.72642 2.17924,-0.726394 1.14696,-1.376357 1.33812,-1.45282 2.86739,-1.223418 2.21745,0.267616 2.82919,0.879313 2.56156,2.485065 -0.11471,0.72642 0,1.56753 0.22938,1.949857 0.57349,0.955771 -0.30585,4.893679 -1.22343,5.390709 -1.4146,0.76464 -2.94386,0.45879 -3.97611,-0.80287 -0.53526,-0.64996 -0.99405,-1.33812 -0.99405,-1.52929 0,-0.61171 -1.37635,-0.38231 -2.02629,0.34409 -0.84109,0.91757 -0.80288,1.1852 0.42055,2.59978 2.29393,2.67626 4.89369,3.13504 6.84353,1.22343 1.26168,-1.22343 1.26168,-1.22343 1.26168,0.42055 0,1.29992 -0.22942,1.87337 -1.10876,2.71446 -1.4528,1.49108 -2.79092,1.7587 -4.43489,0.99405 -1.07052,-0.53524 -1.33812,-0.87934 -1.33812,-1.75866 0,-0.64993 -0.15294,-1.14697 -0.38232,-1.14697 -0.19117,0 -0.38232,0.19115 -0.38232,0.38232 0,0.22939 -0.19117,0.38232 -0.42055,0.38232 -0.26763,0 -0.3441,-0.38232 -0.19117,-0.95579 0.22941,-0.91757 -0.26763,-1.33815 -0.7264,-0.57349 -0.42056,0.64992 -1.60575,0.42054 -1.83516,-0.38233 -0.30585,-1.26166 -0.84109,-0.87932 -1.33811,0.99403 -0.57348,2.10278 -0.38232,2.48509 1.0705,2.17923 1.10873,-0.19114 1.10873,-0.19114 0.87934,1.75868 -0.26763,2.21747 0.15292,2.52332 1.37636,0.9558 0.91757,-1.14695 1.60573,-1.03225 2.56153,0.4588 0.68818,0.99401 0.64993,1.03227 -0.19116,1.72046 -0.91756,0.72637 -2.29391,0.87932 -3.67028,0.34406 z m 8.48749,-13.4577 c 0.0384,-1.376355 -0.0765,-1.835132 -0.497,-1.835132 -0.30587,0 -0.53526,0.191147 -0.53526,0.382308 0,0.229395 -0.49701,0.382321 -1.07047,0.382321 -0.61173,0 -1.37636,0.229382 -1.75869,0.497023 -0.61171,0.45879 -0.53525,0.57348 0.80287,1.49105 0.80288,0.57349 1.7969,0.99403 2.21743,0.95581 0.64998,-0.0765 0.76467,-0.38232 0.84112,-1.87338 z m -7.07291,-0.11483 c 0.30585,-0.688183 0.72642,-0.955819 1.49105,-0.955819 1.75866,0 2.37039,-0.382321 1.7969,-1.070487 -0.42054,-0.497018 -0.30584,-0.573474 1.0705,-0.382314 1.7969,0.22937 2.75271,-0.305858 2.90563,-1.643993 0.0765,-0.72642 -0.0765,-0.955789 -0.8411,-1.032265 -1.10875,-0.114849 -4.05261,1.491055 -3.89967,2.140992 0.0382,0.267643 -0.45877,0.458784 -1.26165,0.458784 -1.0705,0 -1.33812,-0.152932 -1.33812,-0.764641 0,-0.382321 -0.3441,-0.917561 -0.72642,-1.146956 -0.6117,-0.305852 -0.87933,-0.15292 -1.56751,0.955795 -0.45879,0.726426 -0.99403,1.338116 -1.18519,1.338116 -0.61173,0 -0.38232,0.611729 0.7264,1.835158 1.26166,1.41457 2.2557,1.52928 2.82918,0.26763 z"
         id="path102-5-6-3-0-1"
         sodipodi:nodetypes="ccscccscccccccscsccccssscssccccscsssccccsccscccsccsssscccccccccccssscccccscccccssccscc"
         style="fill:#52664d;fill-opacity:1;stroke-width:0.382319"
         inkscape:export-filename="isotipo.svg"
         inkscape:export-xdpi="96"
         inkscape:export-ydpi="96" />
      <path
         d="m 64.26834,114.06311 c -0.84111,-0.2676 -1.07051,-0.61171 -1.07051,-1.49105 0,-0.64994 0.2294,-1.22343 0.57349,-1.33811 0.30586,-0.15294 0.57348,-0.45881 0.57348,-0.76465 0,-0.34407 -0.68818,-0.53526 -2.37039,-0.6117 -2.29394,-0.11486 -2.3704,-0.15294 -3.2115,-1.64398 -0.80289,-1.49106 -1.14696,-4.01438 -0.53526,-4.01438 0.15294,0 0.57349,0.42055 0.91758,0.9558 0.91757,1.37636 2.75272,2.21746 4.24376,1.94985 1.22344,-0.2294 3.36443,-1.94985 3.70852,-2.94387 0.26761,-0.68818 -0.84111,-2.63802 -1.45283,-2.63802 -0.26763,0 -0.84109,0.45879 -1.29988,1.07049 -1.22342,1.52929 -2.17923,1.94984 -3.74674,1.56753 -1.64399,-0.34411 -1.98808,-0.84112 -2.0263,-2.82918 v -2.676249 c -0.0765,-2.905634 0.87933,-4.396701 2.7527,-4.396701 1.14697,0 3.02034,1.299901 3.02034,2.141011 0,2.446857 4.85546,-0.879358 5.69657,-3.937904 0.5735,-2.06453 0.53525,-2.982091 -0.26762,-3.670276 -0.9558,-0.879358 -1.33811,-0.802888 -1.03227,0.114837 0.19117,0.5735 0.0765,0.764648 -0.497,0.764648 -0.68817,0 -0.72643,-0.191148 -0.57349,-1.567511 0.22938,-1.491055 0.19115,-1.529277 -0.53526,-1.108747 -0.45878,0.305871 -1.18518,0.38234 -1.79691,0.229395 -0.91756,-0.229395 -1.03225,-0.42053 -0.91756,-1.491036 0.11471,-1.070486 0.30587,-1.261666 1.60574,-1.605745 1.14696,-0.26763 1.68221,-0.229376 2.56156,0.305851 0.6117,0.344086 1.37637,0.53524 1.64399,0.420549 0.68815,-0.267623 1.33812,1.682215 1.41457,4.052596 0.0384,1.988067 -1.52929,6.881786 -2.21745,6.881786 -0.26762,0 -0.49702,0.152907 -0.49702,0.344099 0,0.191166 -0.42057,0.458796 -0.9558,0.573481 -0.49704,0.114691 -1.10872,0.573481 -1.33814,0.994023 -0.22938,0.420556 -0.80287,0.764655 -1.26166,0.764655 -1.07048,0 -1.94982,0.573468 -1.68221,1.07048 0.15294,0.191167 0.9558,0.45879 1.75869,0.611718 1.07048,0.15293 1.49104,0.38231 1.33811,0.72642 -0.0765,0.26763 0.11485,0.76464 0.49704,1.10872 0.64993,0.57348 0.80285,0.49702 2.21744,-1.14695 0.91759,-1.070507 1.33813,-1.79692 1.03228,-1.91163 -0.53526,-0.15292 -0.61173,-1.835135 -0.11469,-2.140992 0.19116,-0.152914 0.53526,0.611722 0.76463,1.644005 0.34409,1.605747 0.26762,2.217437 -0.38231,4.205507 -0.87936,2.56154 -0.76466,5.65837 0.19116,6.00244 0.68819,0.26763 1.18517,4.62609 0.64993,5.27602 -0.49701,0.61172 -5.88775,0.72641 -7.37878,0.15294 z m 3.55558,-1.22342 c 0.61172,-0.0383 1.29991,0.0383 1.56753,0.19116 0.64992,0.42055 1.56752,-1.03227 1.26163,-1.94984 -0.30584,-0.91758 -1.9116,-1.03225 -2.25568,-0.19115 -0.11484,0.30585 -0.45879,0.57348 -0.80289,0.57348 -0.68819,0 -0.68819,-0.0384 -0.19114,-1.29991 0.26762,-0.7264 0.64994,-0.99402 1.33811,-0.99402 0.99404,0 1.10874,-0.34409 0.7264,-1.79691 -0.30583,-1.07049 -0.84108,-1.14696 -1.2234,-0.11471 -0.15295,0.42056 -0.87936,1.0705 -1.60577,1.45282 -1.56752,0.87934 -1.83512,1.45282 -0.76463,1.72044 1.07049,0.26763 0.95581,1.37637 -0.2294,1.79691 -1.10872,0.45878 -0.84109,1.29991 0.30587,0.91758 0.42053,-0.11471 1.29989,-0.26763 1.87337,-0.30585 z m -5.35249,-10.62853 c 1.03225,-0.49701 1.83514,-1.07049 1.87337,-1.33811 0,-0.22941 -0.57348,-0.64994 -1.29991,-0.87933 -2.33213,-0.764654 -4.6643,1.14695 -3.21148,2.59977 0.57349,0.57348 0.49702,0.61171 2.63802,-0.38233 z m 1.03225,-3.976137 c 0.99404,-0.305851 1.10875,-0.841104 0.19116,-1.185184 -0.38232,-0.152932 -1.03226,-0.573475 -1.41457,-0.955808 -0.84112,-0.764635 -1.03227,-0.80287 -1.91161,-0.458765 -0.7264,0.26763 -0.8411,2.293906 -0.11486,2.561541 0.64996,0.305852 2.21747,0.305852 3.24974,0.03829 z"
         id="path104-0-3-1-2-9"
         sodipodi:nodetypes="cscsccscccsccccssccssccssccccsscssccccccccccccccscscscccsccccccsccccccc"
         style="fill:#52664d;fill-opacity:1;stroke-width:0.382319" />
      <path
         d="m 65.95055,93.494255 c -1.22342,-1.605733 -3.28797,-2.44685 -4.89372,-1.911604 -0.68817,0.229389 -1.52927,0.879346 -1.87336,1.414592 -0.38233,0.573487 -0.76465,0.841111 -0.99405,0.611728 -0.42055,-0.420574 0.99405,-3.899676 1.9116,-4.626102 0.64994,-0.535246 3.86144,-0.305851 5.04665,0.344086 1.07049,0.535266 2.86741,2.370394 3.40265,3.326196 1.07051,2.10277 -1.14695,2.82917 -2.59977,0.841104 z m 0.91758,-1.758659 c -0.19118,-0.497031 -0.38234,-0.535259 -0.68819,-0.229408 -0.22939,0.229408 -0.30586,0.688185 -0.15294,1.070506 0.19116,0.497018 0.38233,0.53524 0.68819,0.229382 0.22938,-0.229382 0.30586,-0.688178 0.15294,-1.07048 z"
         id="path182-3-6-3-3-8"
         sodipodi:nodetypes="cscscccccscsc"
         style="fill:#52664d;fill-opacity:1;stroke-width:0.382319" />
      <path
         id="path5616"
         style="font-size:18.6667px;line-height:0.9;font-family:'Yatra One';-inkscape-font-specification:'Yatra One';text-align:start;letter-spacing:0px;word-spacing:0px;white-space:pre;shape-inside:url(#rect1131-2-4-0-7);display:inline;fill:#52664d;stroke:#52664d;stroke-width:0.343074;stroke-linecap:butt;stroke-linejoin:miter;stroke-dasharray:none;paint-order:markers stroke fill"
         d="m 74.67259,84.884736 0.0184,0.03622 -0.0184,-0.01793 v 12.099436 l 2.54344,0.526484 -0.0179,-5.34094 h 5.95869 L 81.70349,90.553059 H 77.1798 v -4.033445 h 6.70391 l -1.45334,-1.634926 z" />
      <path
         d="m 91.22323,88.336499 2.27091,0.508688 v 8.702141 l -2.27091,-0.508687 v -0.908368 q -1.4534,1.489739 -2.68876,1.398893 -0.58136,-0.03636 -2.07107,-1.344392 -1.48974,-1.308033 -1.58057,-1.816721 -0.0727,-0.472363 -0.0727,-6.031554 l 2.25276,0.508688 q -0.0909,6.249556 0.0909,6.631073 0.36336,0.508681 1.09003,0.327017 0.74486,-0.181685 1.63507,-1.035558 0.90838,-0.853853 1.34438,-1.871228 z"
         style="font-size:18.6667px;line-height:0.9;font-family:'Yatra One';-inkscape-font-specification:'Yatra One';text-align:start;letter-spacing:0px;word-spacing:0px;white-space:pre;shape-inside:url(#rect1131-2-4-0-7);display:inline;fill:#52664d;stroke:#52664d;stroke-width:0.343074;stroke-linecap:butt;stroke-linejoin:miter;stroke-dasharray:none"
         id="path5618" />
      <path
         d="m 97.6363,93.387023 4.12399,-2.815947 q -1.30804,-0.835691 -2.23458,-0.617689 -0.90838,0.218009 -1.39889,1.144545 -0.49052,0.908375 -0.49052,2.289091 z m 0.41784,1.744058 q 0.50869,0.617682 1.14455,0.763034 0.63585,0.145333 1.32622,-0.163522 0.70852,-0.327009 1.18088,-0.63585 0.47235,-0.327024 1.1082,-0.853867 l 0.36334,0.363355 q 0.34518,0.381504 0.69036,0.763021 l 0.36335,0.363341 q -1.58056,1.162715 -2.67059,1.544226 -1.09005,0.399686 -2.16192,0 -1.56239,-0.599534 -2.94312,-2.107413 -0.81752,-0.908361 -0.94469,-2.143738 -0.12717,-1.253539 0.30884,-2.325422 0.45419,-1.071876 1.38072,-1.816742 0.9447,-0.763027 2.05292,-0.763027 0.72668,0 2.14374,0.944712 1.43522,0.926537 2.37991,1.816721 -0.0182,0.05449 -1.45337,1.126397 -1.41707,1.053678 -2.85228,2.089237 z"
         style="font-size:18.6667px;line-height:0.9;font-family:'Yatra One';-inkscape-font-specification:'Yatra One';text-align:start;letter-spacing:0px;word-spacing:0px;white-space:pre;shape-inside:url(#rect1131-2-4-0-7);display:inline;fill:#52664d;stroke:#52664d;stroke-width:0.343074;stroke-linecap:butt;stroke-linejoin:miter;stroke-dasharray:none"
         id="path5620" />
      <path
         d="m 108.19151,88.827011 v 0.744852 q 1.61689,-1.50788 2.8341,-1.43521 0.58136,0.03636 2.03473,1.4534 1.47157,1.398872 1.56241,1.907559 0.0727,0.472342 0.0727,6.031554 l -2.25274,-0.508688 q 0.10899,-6.2314 -0.0909,-6.594735 -0.327,-0.617702 -1.09004,-0.363355 -0.74486,0.236178 -1.5624,0.872029 -0.79936,0.635872 -1.50788,1.489732 v 5.105017 l -2.36178,-0.508688 v -8.702141 z"
         style="font-size:18.6667px;line-height:0.9;font-family:'Yatra One';-inkscape-font-specification:'Yatra One';text-align:start;letter-spacing:0px;word-spacing:0px;white-space:pre;shape-inside:url(#rect1131-2-4-0-7);display:inline;fill:#52664d;stroke:#52664d;stroke-width:0.343074;stroke-linecap:butt;stroke-linejoin:miter;stroke-dasharray:none"
         id="path5622" />
      <path
         d="m 116.2578,89.590053 -0.545,-1.271716 h 1.48971 v -1.962094 l 2.23456,0.508694 v 1.4534 h 2.21644 l 0.54502,1.271716 h -2.76146 v 2.307232 q 0,0.199839 0,0.599533 0,0.490511 -0.0182,0.98103 0,0.490519 0.0545,0.92653 0.0727,0.436024 0.16349,0.799373 0.0909,0.363341 0.30884,0.58135 0.21802,0.218002 0.52686,0.290665 0.30885,0.07274 0.7812,-0.09087 0.49052,-0.181671 1.1082,-0.581357 l 0.49053,0.563194 q -1.05373,0.962854 -1.76224,1.344372 -0.54503,0.308847 -1.50787,-0.109008 -0.94472,-0.399666 -1.67142,-1.126377 -0.70852,-0.744858 -0.70852,-1.28987 v -5.195856 z"
         style="font-size:18.6667px;line-height:0.9;font-family:'Yatra One';-inkscape-font-specification:'Yatra One';text-align:start;letter-spacing:0px;word-spacing:0px;white-space:pre;shape-inside:url(#rect1131-2-4-0-7);display:inline;fill:#52664d;stroke:#52664d;stroke-width:0.343074;stroke-linecap:butt;stroke-linejoin:miter;stroke-dasharray:none"
         id="path5624" />
      <path
         d="m 126.21352,93.387023 4.12397,-2.815947 q -1.30805,-0.835691 -2.23459,-0.617689 -0.90835,0.218009 -1.39887,1.144545 -0.49051,0.908375 -0.49051,2.289091 z m 0.41785,1.744058 q 0.50867,0.617682 1.14451,0.763034 0.63587,0.145333 1.32623,-0.163522 0.70852,-0.327009 1.18089,-0.63585 0.47234,-0.327024 1.1082,-0.853867 l 0.36335,0.363355 q 0.34518,0.381504 0.69035,0.763021 l 0.36335,0.363341 q -1.58055,1.162715 -2.6706,1.544226 -1.09003,0.399686 -2.16191,0 -1.56239,-0.599534 -2.94311,-2.107413 -0.81754,-0.908361 -0.9447,-2.143738 -0.12717,-1.253539 0.30885,-2.325422 0.45418,-1.071876 1.38072,-1.816742 0.94469,-0.763027 2.05289,-0.763027 0.72671,0 2.14376,0.944712 1.43522,0.926537 2.3799,1.816721 -0.0182,0.05449 -1.45338,1.126397 -1.41705,1.053678 -2.85226,2.089237 z"
         style="font-size:18.6667px;line-height:0.9;font-family:'Yatra One';-inkscape-font-specification:'Yatra One';text-align:start;letter-spacing:0px;word-spacing:0px;white-space:pre;shape-inside:url(#rect1131-2-4-0-7);display:inline;fill:#52664d;stroke:#52664d;stroke-width:0.343074;stroke-linecap:butt;stroke-linejoin:miter;stroke-dasharray:none"
         id="path5626" />
      <path
         d="m 82.86623,102.61788 q -1.81672,-1.19905 -3.59712,0.12717 -1.43523,1.09003 -2.08925,3.14294 -0.70852,2.2891 0.14534,3.94231 0.41785,0.8357 1.23538,1.32622 1.8349,1.10819 3.59714,-0.25435 1.43521,-1.10821 2.0529,-3.17928 0.6722,-2.28908 -0.25435,-3.92414 -0.39967,-0.72669 -1.09004,-1.18087 z m 2.83412,0.89019 q 0.69035,0.67219 1.03553,1.59873 0.34518,0.90837 0.32702,1.87123 0,0.9447 -0.30885,1.92575 -0.29067,0.98103 -0.81754,1.8349 -0.50867,0.83568 -1.23537,1.50789 -0.72668,0.65402 -1.5624,0.99921 -0.83569,0.34517 -1.81673,0.29066 -0.98103,-0.0545 -1.92574,-0.59954 -0.14533,-0.0909 -0.52684,-0.29065 -0.36335,-0.19985 -0.52686,-0.27252 -0.14533,-0.0909 -0.45418,-0.27251 -0.30885,-0.19982 -0.52684,-0.34518 -0.19985,-0.1635 -0.5087,-0.38152 -0.29067,-0.23615 -0.59952,-0.50867 -0.30883,-0.27252 -0.65401,-0.6177 -0.6722,-0.63585 -0.99922,-1.52605 -0.30885,-0.8902 -0.29067,-1.8349 0.0363,-0.9447 0.32702,-1.90758 0.29067,-0.98103 0.79936,-1.83489 0.52683,-0.87203 1.23537,-1.54424 0.70853,-0.69035 1.48973,-1.07186 0.79936,-0.39968 1.70773,-0.39968 0.90835,0 1.78039,0.47234 2.36176,1.27171 4.05132,2.90678 z"
         style="font-size:18.6667px;line-height:0.9;font-family:'Yatra One';-inkscape-font-specification:'Yatra One';text-align:start;letter-spacing:0px;word-spacing:0px;white-space:pre;shape-inside:url(#rect1131-2-4-0-7);display:inline;fill:#52664d;stroke:#52664d;stroke-width:0.343074;stroke-linecap:butt;stroke-linejoin:miter;stroke-dasharray:none"
         id="path5628" />
      <path
         d="m 90.40567,104.83428 2.32543,5.65005 2.39808,-6.15872 2.27092,0.50867 -3.37912,8.70216 h -0.0182 l -2.25275,-0.50869 h -0.0182 l -3.5971,-8.70214 z"
         style="font-size:18.6667px;line-height:0.9;font-family:'Yatra One';-inkscape-font-specification:'Yatra One';text-align:start;letter-spacing:0px;word-spacing:0px;white-space:pre;shape-inside:url(#rect1131-2-4-0-7);display:inline;fill:#52664d;stroke:#52664d;stroke-width:0.343074;stroke-linecap:butt;stroke-linejoin:miter;stroke-dasharray:none"
         id="path5630" />
      <path
         d="m 100.3977,109.39427 4.12398,-2.81592 q -1.30804,-0.83569 -2.23457,-0.61768 -0.90837,0.218 -1.39889,1.14453 -0.49052,0.90838 -0.49052,2.28907 z m 0.41785,1.7441 q 0.50868,0.61767 1.14456,0.76303 0.63584,0.14533 1.32621,-0.16352 0.70853,-0.32702 1.18086,-0.63588 0.47236,-0.327 1.10821,-0.85385 l 0.36334,0.36335 q 0.34519,0.38151 0.69037,0.76302 l 0.36334,0.36336 q -1.58054,1.16271 -2.67059,1.5442 -1.09004,0.39971 -2.16192,0 -1.56238,-0.59951 -2.9431,-2.1074 -0.81754,-0.90836 -0.9447,-2.14374 -0.12719,-1.25354 0.30884,-2.32541 0.45419,-1.07189 1.38073,-1.81675 0.94468,-0.76304 2.0529,-0.76304 0.7267,0 2.14375,0.94473 1.43521,0.92653 2.37991,1.81673 -0.0182,0.0545 -1.45339,1.12638 -1.41704,1.0537 -2.85227,2.08924 z"
         style="font-size:18.6667px;line-height:0.9;font-family:'Yatra One';-inkscape-font-specification:'Yatra One';text-align:start;letter-spacing:0px;word-spacing:0px;white-space:pre;shape-inside:url(#rect1131-2-4-0-7);display:inline;fill:#52664d;stroke:#52664d;stroke-width:0.343074;stroke-linecap:butt;stroke-linejoin:miter;stroke-dasharray:none"
         id="path5632" />
      <path
         d="m 109.84471,103.2174 q -0.92654,-0.43601 -1.38072,-1.32621 0.0363,-0.2907 0.54504,-0.74487 0.50865,-0.45419 0.81752,-0.52685 0.92652,0.41784 1.36255,1.28989 -0.30886,0.78118 -1.34439,1.30804 z m 1.10818,1.61688 v 9.53785 q 0,0.54503 -0.67219,1.27172 -0.67216,0.72669 -1.5987,1.21721 -0.92654,0.49053 -1.54422,0.36335 -0.43603,-0.0909 -2.88862,-1.16272 l 0.32701,-0.65402 q 1.09004,0.49051 1.87124,0.4542 0.76303,-0.0364 1.25354,-0.5087 0.50869,-0.47234 0.72669,-1.0537 0.23619,-0.56318 0.23619,-1.14454 l 0.0182,-8.82932 z"
         style="font-size:18.6667px;line-height:0.9;font-family:'Yatra One';-inkscape-font-specification:'Yatra One';text-align:start;letter-spacing:0px;word-spacing:0px;white-space:pre;shape-inside:url(#rect1131-2-4-0-7);display:inline;fill:#52664d;stroke:#52664d;stroke-width:0.343074;stroke-linecap:butt;stroke-linejoin:miter;stroke-dasharray:none"
         id="path5634" />
      <path
         d="m 119.27356,104.34377 2.27092,0.5087 v 8.70213 l -2.27092,-0.50867 v -0.90836 q -1.45337,1.4897 -2.68875,1.39887 -0.58137,-0.0364 -2.07108,-1.34439 -1.48972,-1.30804 -1.58056,-1.81671 -0.0727,-0.47237 -0.0727,-6.03157 l 2.25275,0.5087 q -0.0909,6.24953 0.0909,6.63108 0.36335,0.50866 1.09004,0.327 0.74487,-0.18167 1.63506,-1.03555 0.90837,-0.85385 1.34438,-1.87122 z"
         style="font-size:18.6667px;line-height:0.9;font-family:'Yatra One';-inkscape-font-specification:'Yatra One';text-align:start;letter-spacing:0px;word-spacing:0px;white-space:pre;shape-inside:url(#rect1131-2-4-0-7);display:inline;fill:#52664d;stroke:#52664d;stroke-width:0.343074;stroke-linecap:butt;stroke-linejoin:miter;stroke-dasharray:none"
         id="path5636" />
      <path
         d="m 126.19532,104.83428 v 0.74488 q 1.6169,-1.5079 2.8341,-1.43523 0.58136,0.0364 2.03474,1.45338 1.47156,1.39889 1.56238,1.90757 0.0727,0.47236 0.0727,6.03156 l -2.25274,-0.50869 q 0.109,-6.23139 -0.0909,-6.59473 -0.32701,-0.61771 -1.09004,-0.36335 -0.74485,0.23617 -1.56237,0.87204 -0.79936,0.63584 -1.5079,1.4897 v 5.10503 l -2.36174,-0.50869 v -8.70214 z"
         style="font-size:18.6667px;line-height:0.9;font-family:'Yatra One';-inkscape-font-specification:'Yatra One';text-align:start;letter-spacing:0px;word-spacing:0px;white-space:pre;shape-inside:url(#rect1131-2-4-0-7);display:inline;fill:#52664d;stroke:#52664d;stroke-width:0.343074;stroke-linecap:butt;stroke-linejoin:miter;stroke-dasharray:none"
         id="path5638" />
      <path
         d="m 135.46066,106.63286 -0.98105,-1.65324 q 1.27172,-0.327 2.81594,-0.61767 1.56241,-0.29069 1.96208,-0.27251 0.39967,0.0182 1.59873,1.19902 1.19905,1.16272 1.61689,1.7804 0.14534,0.21803 0.14534,1.47157 0,1.23538 -0.0545,2.83409 -0.0363,1.59874 -0.0182,2.16192 l -2.25273,-0.52685 0.0182,-0.92653 q -1.47158,1.47154 -2.3981,1.47154 -0.87204,-0.0182 -2.21643,-1.6532 -1.34435,-1.63508 -1.34435,-2.3436 0,-0.56319 0.76301,-1.03555 0.76302,-0.47234 1.85307,-0.72667 1.10819,-0.27253 1.96207,-0.41787 0.85388,-0.14534 1.4534,-0.19983 l 0.0182,-0.49052 q 0.0182,-0.87205 -0.92651,-0.9447 -0.87204,-0.0545 -3.66984,0.78119 h -0.0182 l -0.0182,0.0182 h -0.0182 -0.0182 l -0.0182,0.0182 h -0.0182 -0.0182 l -0.0182,0.0182 h -0.0182 -0.0182 l -0.0182,0.0182 h -0.0182 -0.0182 -0.0182 l -0.0182,0.0182 h -0.0182 -0.0182 l -0.0182,0.0182 z m 0.90836,4.56 q 0.16352,0.25433 0.61769,0.327 0.4542,0.0727 1.36256,-0.23616 0.92653,-0.32702 1.99839,-1.12638 l 0.0182,-1.59871 q -4.79619,1.39887 -3.99681,2.63425 z"
         style="font-size:18.6667px;line-height:0.9;font-family:'Yatra One';-inkscape-font-specification:'Yatra One';text-align:start;letter-spacing:0px;word-spacing:0px;white-space:pre;shape-inside:url(#rect1131-2-4-0-7);display:inline;fill:#52664d;stroke:#52664d;stroke-width:0.343074;stroke-linecap:butt;stroke-linejoin:miter;stroke-dasharray:none"
         id="path5640" />
    </g>
  </g>
</svg>
