<?xml version="1.0" encoding="UTF-8" standalone="no"?>
<!-- Created with Inkscape (http://www.inkscape.org/) -->

<svg
   width="157.59937mm"
   height="52.916656mm"
   viewBox="0 0 157.59937 52.916656"
   version="1.1"
   id="svg973"
   inkscape:version="1.2.1 (9c6d41e410, 2022-07-14)"
   sodipodi:docname="logoconcenefa.svg"
   inkscape:export-filename="pruebas.png"
   inkscape:export-xdpi="96"
   inkscape:export-ydpi="96"
   xmlns:inkscape="http://www.inkscape.org/namespaces/inkscape"
   xmlns:sodipodi="http://sodipodi.sourceforge.net/DTD/sodipodi-0.dtd"
   xmlns="http://www.w3.org/2000/svg"
   xmlns:svg="http://www.w3.org/2000/svg">
  <sodipodi:namedview
     id="namedview975"
     pagecolor="#ffffff"
     bordercolor="#000000"
     borderopacity="0.25"
     inkscape:showpageshadow="2"
     inkscape:pageopacity="1"
     inkscape:pagecheckerboard="0"
     inkscape:deskcolor="#d1d1d1"
     inkscape:document-units="mm"
     showgrid="false"
     showguides="true"
     inkscape:zoom="1.0444209"
     inkscape:cx="484.00026"
     inkscape:cy="739.16558"
     inkscape:window-width="1920"
     inkscape:window-height="1009"
     inkscape:window-x="-8"
     inkscape:window-y="-8"
     inkscape:window-maximized="1"
     inkscape:current-layer="layer1">
    <inkscape:grid
       type="xygrid"
       id="grid1063"
       snapvisiblegridlinesonly="true"
       dotted="false"
       originx="-40.279497"
       originy="-37.746197" />
    <inkscape:grid
       type="xygrid"
       id="grid1065"
       color="#a3e1ff"
       opacity="0.14901961"
       snapvisiblegridlinesonly="true"
       originx="-40.279497"
       originy="-37.746197" />
  </sodipodi:namedview>
  <defs
     id="defs970">
    <rect
       x="435"
       y="425"
       width="150.00002"
       height="80.000008"
       id="rect1131-2-4-0-7" />
  </defs>
  <g
     inkscape:label="Capa 1"
     inkscape:groupmode="layer"
     id="layer1"
     transform="translate(-68.815828,-240.48949)">
    <path
       d="m 74.09272,287.44277 c -0.653779,-0.23774 -1.783045,-0.59435 -2.49624,-0.8915 -1.723606,-0.53493 -1.783044,-2.43684 -0.118876,-2.97172 1.664145,-0.53495 1.069804,-1.84248 -0.77268,-1.60475 -1.366974,0.17853 -1.545267,-0.0594 -1.842461,-2.0802 -0.118876,-1.24812 0,-2.49624 0.237732,-2.79343 0.297193,-0.35659 0.534925,-1.30756 0.534925,-2.13963 0,-0.8321 0.237732,-1.78303 0.534904,-2.08021 1.069826,-1.12925 1.010387,-4.69532 -0.118879,-5.64627 -1.426413,-1.18871 -1.545268,-6.12174 -0.178316,-7.66706 1.24812,-1.36697 1.426437,-5.76513 0.416048,-9.56893 -1.188682,-4.517 -1.366975,-5.88399 -1.010388,-7.42931 0.475485,-1.84245 1.545291,-1.9613 1.604728,-0.11888 0,0.7132 0.178317,0.95095 0.356588,0.59437 0.118876,-0.41605 0.891532,-0.77265 1.664168,-0.77265 0.713239,0 1.664166,-0.41607 2.080214,-0.89154 0.950972,-1.18866 3.566067,-1.18866 3.566067,0 0,0.47547 0.65378,1.01039 1.485875,1.24814 1.545312,0.35659 1.723584,0.7132 1.129264,2.25849 -0.534945,1.367 -3.566088,1.18867 -4.933085,-0.29717 -1.129244,-1.24812 -1.129244,-1.24812 -1.783022,-0.0594 -0.416048,0.77266 -0.416048,1.30756 0.118876,1.84248 0.832073,0.83208 -0.356609,1.84247 -2.080216,1.84247 -0.772632,0 -1.069826,0.47548 -1.069826,1.78301 0,1.90193 1.069826,2.37739 2.496262,1.0104 0.950951,-0.8915 3.863239,-2.79341 4.338702,-2.79341 0.178315,0 0.297193,0.5349 0.297193,1.12924 0,1.367 0.950927,2.13966 1.485852,1.24812 0.237709,-0.35661 0.05965,-1.0698 -0.356631,-1.54527 -0.356587,-0.47548 -0.594319,-0.89154 -0.475464,-1.01039 2.49624,-1.42641 2.912288,-1.48588 5.349072,-0.89152 3.625495,0.83208 5.289695,2.79341 5.289695,6.18117 0,2.73398 -0.71322,3.38776 -1.78305,1.48589 -1.18871,-2.31798 -2.43682,-3.03118 -5.111332,-3.03118 -2.258556,0 -2.91229,0.29715 -4.992483,2.37736 -1.307582,1.30758 -2.377386,2.73401 -2.377386,3.0906 0,0.41605 0.713219,1.30756 1.604707,1.90189 1.545313,1.12927 1.545313,1.12927 3.387774,-1.12922 1.783022,-2.13964 2.080195,-2.25851 4.457557,-1.9019 3.447183,0.41602 4.398163,1.36697 3.982123,3.86321 -0.17832,1.12927 0,2.43683 0.35659,3.03119 0.89153,1.48581 -0.47547,7.60757 -1.90191,8.38023 -2.199092,1.1887 -4.576434,0.71322 -6.181142,-1.24812 -0.832096,-1.01041 -1.545313,-2.08021 -1.545313,-2.37738 0,-0.95096 -2.139631,-0.59433 -3.15002,0.53491 -1.307537,1.42643 -1.24812,1.84247 0.653781,4.04153 3.566066,4.16044 7.60758,4.87364 10.638744,1.90191 1.96136,-1.90191 1.96136,-1.90191 1.96136,0.65376 0,2.02082 -0.35664,2.9123 -1.72363,4.21984 -2.258486,2.31798 -4.338682,2.73402 -6.894361,1.54532 -1.66419,-0.83208 -2.080192,-1.367 -2.080192,-2.73398 0,-1.01036 -0.237755,-1.78303 -0.594341,-1.78303 -0.297193,0 -0.594341,0.29716 -0.594341,0.59435 0,0.35659 -0.297192,0.59433 -0.65378,0.59433 -0.416047,0 -0.534924,-0.59433 -0.297192,-1.48584 0.356631,-1.42643 -0.416048,-2.08024 -1.129242,-0.89153 -0.653781,1.01036 -2.496242,0.65378 -2.852873,-0.59435 -0.475464,-1.96135 -1.307535,-1.36697 -2.080193,1.54529 -0.891511,3.2689 -0.59434,3.86324 1.664169,3.38776 1.723605,-0.29715 1.723605,-0.29715 1.366997,2.73399 -0.416048,3.44721 0.237731,3.92266 2.139652,1.48584 1.426414,-1.783 2.49622,-1.60469 3.982071,0.71325 1.069826,1.54527 1.010366,1.60473 -0.297171,2.67456 -1.426413,1.12922 -3.566043,1.36698 -5.705699,0.53488 z m 13.194391,-20.9209 c 0.0596,-2.13966 -0.11887,-2.85285 -0.77263,-2.85285 -0.475484,0 -0.83209,0.29714 -0.83209,0.59431 0,0.35662 -0.772636,0.59435 -1.664125,0.59435 -0.950969,0 -2.139654,0.35659 -2.733995,0.77265 -0.950949,0.71323 -0.832095,0.89154 1.24812,2.31795 1.248122,0.89152 2.793395,1.54529 3.447145,1.48588 1.010435,-0.11889 1.188725,-0.59436 1.307575,-2.91229 z m -10.99532,-0.17853 c 0.475464,-1.06983 1.129266,-1.48589 2.317924,-1.48589 2.733971,0 3.684945,-0.59434 2.793411,-1.66414 -0.653757,-0.77266 -0.475442,-0.89151 1.664171,-0.59435 2.793406,0.35659 4.279284,-0.47547 4.516994,-2.55569 0.11887,-1.12926 -0.11888,-1.48585 -1.30754,-1.60473 -1.723628,-0.17854 -6.300062,2.31796 -6.062307,3.32833 0.05943,0.41606 -0.713195,0.7132 -1.961316,0.7132 -1.664167,0 -2.080214,-0.23773 -2.080214,-1.18868 0,-0.59435 -0.534925,-1.42641 -1.129266,-1.78303 -0.950928,-0.47546 -1.366975,-0.23773 -2.436801,1.48586 -0.713218,1.12927 -1.54529,2.08018 -1.842462,2.08018 -0.950971,0 -0.594339,0.95098 1.129244,2.85288 1.961337,2.19907 3.506628,2.37738 4.398162,0.41606 z"
       id="path102-5-6-3-0-1"
       sodipodi:nodetypes="ccscccscccccccscsccccssscssccccscsssccccsccscccsccsssscccccccccccssscccccscccccssccscc"
       style="fill:#52664d;fill-opacity:1;stroke-width:0.594342"
       inkscape:export-filename="logotipo.svg"
       inkscape:export-xdpi="96"
       inkscape:export-ydpi="96" />
    <path
       d="m 102.20519,287.32389 c -1.30756,-0.41601 -1.66417,-0.95096 -1.66417,-2.31793 0,-1.01039 0.35661,-1.90192 0.89152,-2.0802 0.47548,-0.23775 0.89152,-0.71324 0.89152,-1.18869 0,-0.53491 -1.06983,-0.83211 -3.684939,-0.95096 -3.56609,-0.17854 -3.68494,-0.23774 -4.9925,-2.55567 -1.24814,-2.31795 -1.78302,-6.24063 -0.8321,-6.24063 0.23776,0 0.89153,0.65377 1.42644,1.48585 1.42643,2.13966 4.27929,3.44721 6.597229,3.03119 1.90191,-0.35661 5.23024,-3.03119 5.76514,-4.57645 0.41603,-1.06982 -1.30756,-4.10099 -2.25851,-4.10099 -0.41605,0 -1.30755,0.71322 -2.02076,1.66416 -1.90189,2.37739 -3.387769,3.03116 -5.824569,2.43683 -2.5557,-0.53493 -3.0906,-1.30758 -3.15002,-4.39816 v -4.16041 c -0.11888,-4.51702 1.36697,-6.83497 4.27925,-6.83497 1.78306,0 4.695339,2.02078 4.695339,3.32834 0,3.80382 7.54814,-1.36703 8.85572,-6.12174 0.89152,-3.20947 0.83208,-4.63587 -0.41604,-5.7057 -1.48586,-1.36703 -2.08019,-1.24815 -1.60474,0.17853 0.29719,0.89154 0.11888,1.18868 -0.77262,1.18868 -1.06981,0 -1.12927,-0.29714 -0.89152,-2.43679 0.35658,-2.31796 0.29715,-2.37738 -0.83211,-1.72363 -0.7132,0.4755 -1.84244,0.59438 -2.79342,0.35662 -1.42641,-0.35662 -1.60471,-0.65377 -1.42641,-2.31793 0.17832,-1.66415 0.47549,-1.96135 2.49624,-2.49625 1.78302,-0.41605 2.61512,-0.35658 3.98212,0.47548 0.95092,0.53491 2.13965,0.83207 2.55568,0.65376 1.0698,-0.41603 2.08022,2.61512 2.19907,6.30006 0.0596,3.09058 -2.3774,10.6982 -3.44719,10.6982 -0.41603,0 -0.77265,0.23771 -0.77265,0.53492 0,0.29719 -0.65381,0.71323 -1.48586,0.89152 -0.77267,0.17831 -1.72359,0.89153 -2.08022,1.54528 -0.35659,0.65379 -1.24812,1.1887 -1.96134,1.1887 -1.66415,0 -3.03114,0.8915 -2.61512,1.66415 0.23776,0.29718 1.48586,0.71322 2.734,0.95095 1.66414,0.23774 2.31792,0.59432 2.08019,1.12928 -0.11888,0.41604 0.17854,1.18868 0.77268,1.72358 1.01037,0.89153 1.2481,0.77265 3.44717,-1.78302 1.42644,-1.66418 2.08022,-2.79344 1.60476,-2.97175 -0.8321,-0.23773 -0.95098,-2.85285 -0.17832,-3.32832 0.29717,-0.23774 0.8321,0.95096 1.18869,2.55571 0.53491,2.49624 0.41603,3.44717 -0.59435,6.53775 -1.367,3.9821 -1.18869,8.79633 0.2972,9.33122 1.06982,0.41605 1.84243,7.19157 1.01036,8.20194 -0.77264,0.95097 -9.15292,1.12926 -11.47084,0.23773 z m 5.5274,-1.90189 c 0.95096,-0.0595 2.02079,0.0595 2.43683,0.29718 1.01036,0.65375 2.43681,-1.60475 1.96129,-3.03117 -0.47545,-1.42644 -2.97171,-1.60472 -3.5066,-0.29715 -0.17853,0.47544 -0.71322,0.89149 -1.24815,0.89149 -1.06983,0 -1.06983,-0.0596 -0.29715,-2.02078 0.41605,-1.12924 1.01038,-1.54528 2.08019,-1.54528 1.54531,0 1.72362,-0.5349 1.12925,-2.79342 -0.47544,-1.66416 -1.30753,-1.78303 -1.90187,-0.17832 -0.23776,0.65379 -1.36702,1.66416 -2.49627,2.25851 -2.43683,1.36699 -2.85284,2.25849 -1.18868,2.67454 1.66414,0.41605 1.48588,2.13966 -0.35661,2.79343 -1.7236,0.7132 -1.30755,2.02078 0.47549,1.42642 0.65374,-0.17832 2.02077,-0.41603 2.91228,-0.47547 z m -8.320809,-16.52279 c 1.604699,-0.77264 2.852839,-1.66415 2.912279,-2.08019 0,-0.35661 -0.89152,-1.01039 -2.0208,-1.36698 -3.625469,-1.18871 -7.250979,1.78302 -4.992469,4.04153 0.89153,0.89151 0.77265,0.95095 4.10099,-0.59436 z m 1.604699,-6.18119 c 1.54529,-0.47546 1.72362,-1.30755 0.29717,-1.84244 -0.59434,-0.23775 -1.604719,-0.89152 -2.199049,-1.48587 -1.30758,-1.18868 -1.60474,-1.24812 -2.97173,-0.71319 -1.12925,0.41605 -1.30755,3.56604 -0.17856,3.98209 1.01041,0.47546 3.44722,0.47546 5.051949,0.0594 z"
       id="path104-0-3-1-2-9"
       sodipodi:nodetypes="cscsccscccsccccssccssccssccccsscssccccccccccccccscscscccsccccccsccccccc"
       style="fill:#52664d;fill-opacity:1;stroke-width:0.594342" />
    <path
       d="m 104.82031,255.34818 c -1.9019,-2.49624 -5.111379,-3.8038 -7.607619,-2.97172 -1.06982,0.35659 -2.37737,1.367 -2.91229,2.19907 -0.59435,0.89152 -1.18869,1.30757 -1.5453,0.95097 -0.65378,-0.65381 1.5453,-6.06231 2.97171,-7.19159 1.01038,-0.83208 6.002879,-0.47548 7.845369,0.53491 1.66414,0.8321 4.45759,3.68494 5.28966,5.1708 1.66418,3.2689 -1.78303,4.39814 -4.04153,1.30756 z m 1.42643,-2.73397 c -0.29719,-0.77266 -0.59437,-0.83209 -1.06983,-0.35662 -0.3566,0.35662 -0.47548,1.06981 -0.23775,1.66417 0.29716,0.77265 0.59436,0.83208 1.06983,0.35659 0.35658,-0.35659 0.47547,-1.06983 0.23775,-1.66414 z"
       id="path182-3-6-3-3-8"
       sodipodi:nodetypes="cscscccccscsc"
       style="fill:#52664d;fill-opacity:1;stroke-width:0.594342" />
    <g
       aria-label="Fuente
Ovejuna"
       transform="matrix(1.4533874,0,0,1.4533874,-509.3089,-372.30138)"
       id="text1129-1-5-1-1"
       style="font-size:18.6667px;line-height:0.9;font-family:'Yatra One';-inkscape-font-specification:'Yatra One';text-align:center;letter-spacing:0px;word-spacing:0px;white-space:pre;shape-inside:url(#rect1131-2-4-0-7);display:inline;fill:#52664d;stroke:#52664d">
      <path
         d="m 442.67837,430.59547 h -6.3154 l 0.0193,5.66076 -2.69561,-0.55838 v -12.82334 l 0.0193,0.0193 -0.0193,-0.0385 h 8.22158 l 1.54034,1.73288 h -7.10484 v 4.27445 h 4.79432 z"
         style="text-align:start;stroke-width:1.03148"
         id="path5616" />
      <path
         d="m 451.22728,426.51357 2.40678,0.53912 v 9.22279 l -2.40678,-0.53912 v -0.96272 q -1.54036,1.57887 -2.84963,1.48259 -0.61614,-0.0385 -2.19498,-1.42482 -1.57887,-1.3863 -1.67513,-1.92542 -0.0771,-0.50062 -0.0771,-6.39242 l 2.38754,0.53912 q -0.0963,6.62347 0.0963,7.02781 0.38509,0.53911 1.15525,0.34658 0.78943,-0.19255 1.7329,-1.09751 0.96271,-0.90494 1.42481,-1.98318 z"
         style="text-align:start;stroke-width:1.03148"
         id="path5618" />
      <path
         d="m 458.02404,431.86626 4.37072,-2.98442 q -1.3863,-0.88569 -2.36827,-0.65464 -0.96272,0.23105 -1.48258,1.21302 -0.51987,0.96272 -0.51987,2.42604 z m 0.44284,1.84841 q 0.53912,0.65464 1.21303,0.80868 0.67389,0.15403 1.40556,-0.1733 0.75092,-0.34657 1.25153,-0.67389 0.50061,-0.34659 1.17451,-0.90495 l 0.38508,0.38509 q 0.36583,0.40433 0.73166,0.80867 l 0.38509,0.38508 q -1.67512,1.23228 -2.83037,1.63662 -1.15526,0.4236 -2.29127,0 -1.65587,-0.6354 -3.1192,-2.2335 -0.86644,-0.96271 -1.00121,-2.272 -0.13478,-1.32854 0.32732,-2.46455 0.48136,-1.136 1.46333,-1.92543 1.00121,-0.80868 2.17574,-0.80868 0.77015,0 2.272,1.00123 1.52108,0.98197 2.52229,1.92542 -0.0193,0.0578 -1.54032,1.19378 -1.50185,1.11673 -3.02293,2.21424 z"
         style="text-align:start;stroke-width:1.03148"
         id="path5620" />
      <path
         d="m 469.21076,427.03343 v 0.78942 q 1.71363,-1.5981 3.00367,-1.52108 0.61613,0.0385 2.15647,1.54035 1.5596,1.48257 1.65587,2.02169 0.0771,0.50061 0.0771,6.39242 l -2.38752,-0.53912 q 0.11552,-6.60422 -0.0963,-6.9893 -0.34657,-0.65465 -1.15526,-0.38509 -0.78942,0.25031 -1.65586,0.9242 -0.8472,0.67392 -1.5981,1.57886 v 5.41045 l -2.50308,-0.53912 v -9.22279 z"
         style="text-align:start;stroke-width:1.03148"
         id="path5622" />
      <path
         d="m 477.75966,427.84212 -0.57762,-1.3478 h 1.57884 v -2.07948 l 2.36826,0.53913 v 1.54035 h 2.34904 l 0.57764,1.3478 h -2.92668 v 2.44528 q 0,0.21179 0,0.6354 0,0.51986 -0.0193,1.03973 0,0.51986 0.0578,0.98196 0.0771,0.46211 0.17328,0.8472 0.0963,0.38507 0.32732,0.61613 0.23106,0.23105 0.55838,0.30806 0.32733,0.0771 0.82793,-0.0963 0.51987,-0.19254 1.17451,-0.61613 l 0.51987,0.59688 q -1.11676,1.02047 -1.86767,1.42481 -0.57763,0.32733 -1.59809,-0.11553 -1.00123,-0.42358 -1.77141,-1.19376 -0.75091,-0.78943 -0.75091,-1.36705 v -5.50672 z"
         style="text-align:start;stroke-width:1.03148"
         id="path5624" />
      <path
         d="m 488.31101,431.86626 4.37072,-2.98442 q -1.38631,-0.88569 -2.36829,-0.65464 -0.9627,0.23105 -1.48257,1.21302 -0.51986,0.96272 -0.51986,2.42604 z m 0.44285,1.84841 q 0.53912,0.65464 1.213,0.80868 0.67392,0.15403 1.40557,-0.1733 0.75091,-0.34657 1.25154,-0.67389 0.50061,-0.34659 1.1745,-0.90495 l 0.38509,0.38509 q 0.36584,0.40433 0.73166,0.80867 l 0.38509,0.38508 q -1.67512,1.23228 -2.83039,1.63662 -1.15525,0.4236 -2.29125,0 -1.65587,-0.6354 -3.1192,-2.2335 -0.86644,-0.96271 -1.00122,-2.272 -0.13476,-1.32854 0.32733,-2.46455 0.48135,-1.136 1.46332,-1.92543 1.00123,-0.80868 2.17572,-0.80868 0.77019,0 2.27202,1.00123 1.52109,0.98197 2.5223,1.92542 -0.0193,0.0578 -1.54034,1.19378 -1.50184,1.11673 -3.02292,2.21424 z"
         style="text-align:start;stroke-width:1.03148"
         id="path5626" />
      <path
         d="m 442.37029,442.01325 q -1.92542,-1.27079 -3.81234,0.13478 -1.5211,1.15525 -2.21425,3.33098 -0.75091,2.42605 0.15404,4.17818 0.44285,0.88569 1.30929,1.40555 1.94469,1.17451 3.81236,-0.26956 1.52108,-1.17451 2.17572,-3.36949 0.71241,-2.42604 -0.26956,-4.15892 -0.42359,-0.77017 -1.15526,-1.25152 z m 3.00369,0.94345 q 0.73164,0.71241 1.09748,1.69438 0.36583,0.96272 0.34658,1.98319 0,1.00122 -0.32733,2.04095 -0.30805,1.03974 -0.86644,1.94469 -0.53911,0.88568 -1.30929,1.5981 -0.77017,0.69316 -1.65588,1.059 -0.88569,0.36581 -1.92542,0.30805 -1.03972,-0.0578 -2.04095,-0.6354 -0.15403,-0.0963 -0.55837,-0.30805 -0.38509,-0.2118 -0.55838,-0.28882 -0.15403,-0.0963 -0.48136,-0.28881 -0.32732,-0.21179 -0.55836,-0.36584 -0.2118,-0.17328 -0.53913,-0.40434 -0.30806,-0.25029 -0.63539,-0.53911 -0.32731,-0.28882 -0.69315,-0.65465 -0.71241,-0.67389 -1.05899,-1.61736 -0.32732,-0.94346 -0.30806,-1.94468 0.0385,-1.00122 0.34659,-2.0217 0.30805,-1.03973 0.84717,-1.94468 0.55836,-0.92421 1.30929,-1.63663 0.75092,-0.73165 1.57886,-1.13598 0.84718,-0.4236 1.8099,-0.4236 0.9627,0 1.88691,0.50061 2.50306,1.34779 4.29372,3.08068 z"
         style="text-align:start;stroke-width:1.03148"
         id="path5628" />
      <path
         d="m 450.36081,444.36226 2.46456,5.98808 2.54155,-6.52719 2.40679,0.53911 -3.58129,9.2228 h -0.0193 l -2.38752,-0.53912 h -0.0193 l -3.81235,-9.22279 z"
         style="text-align:start;stroke-width:1.03148"
         id="path5630" />
      <path
         d="m 460.95066,449.19507 4.37071,-2.98439 q -1.3863,-0.8857 -2.36827,-0.65465 -0.96271,0.23105 -1.48258,1.21302 -0.51986,0.96272 -0.51986,2.42602 z m 0.44284,1.84844 q 0.53912,0.65463 1.21303,0.80868 0.67389,0.15403 1.40557,-0.1733 0.75091,-0.34658 1.2515,-0.67392 0.50062,-0.34656 1.17453,-0.90493 l 0.38507,0.38508 q 0.36584,0.40433 0.73168,0.80868 l 0.38507,0.38509 q -1.6751,1.23228 -2.83037,1.6366 -1.15525,0.42361 -2.29126,0 -1.65587,-0.63538 -3.11919,-2.23349 -0.86645,-0.9627 -1.00121,-2.272 -0.1348,-1.32854 0.32731,-2.46455 0.48137,-1.136 1.46334,-1.92543 1.0012,-0.80869 2.17572,-0.80869 0.77018,0 2.27201,1.00125 1.52108,0.98196 2.5223,1.92542 -0.0193,0.0578 -1.54035,1.19377 -1.50182,1.11674 -3.02291,2.21424 z"
         style="text-align:start;stroke-width:1.03148"
         id="path5632" />
      <path
         d="m 470.96287,442.64864 q -0.98197,-0.4621 -1.46333,-1.40556 0.0385,-0.30809 0.57765,-0.78943 0.53909,-0.48136 0.86643,-0.55837 0.98196,0.44284 1.44407,1.36705 -0.32733,0.82792 -1.42482,1.38631 z m 1.17449,1.71362 v 10.10849 q 0,0.57764 -0.71241,1.34781 -0.71238,0.77016 -1.69435,1.29003 -0.98197,0.51988 -1.63661,0.38509 -0.46212,-0.0963 -3.06144,-1.23228 l 0.34657,-0.69316 q 1.15526,0.51987 1.98319,0.48137 0.80869,-0.0385 1.32855,-0.53913 0.53912,-0.50059 0.77017,-1.11674 0.25031,-0.59687 0.25031,-1.21302 l 0.0193,-9.35757 z"
         style="text-align:start;stroke-width:1.03148"
         id="path5634" />
      <path
         d="m 480.95585,443.8424 2.40678,0.53913 v 9.22278 l -2.40678,-0.53911 v -0.96271 q -1.54034,1.57884 -2.84962,1.48257 -0.61615,-0.0385 -2.195,-1.42482 -1.57885,-1.3863 -1.67512,-1.92541 -0.0771,-0.50063 -0.0771,-6.39243 l 2.38754,0.53913 q -0.0963,6.62344 0.0963,7.02781 0.38509,0.5391 1.15525,0.34657 0.78944,-0.19254 1.73289,-1.0975 0.96272,-0.90494 1.42482,-1.98319 z"
         style="text-align:start;stroke-width:1.03148"
         id="path5636" />
      <path
         d="m 488.29172,444.36226 v 0.78944 q 1.71365,-1.59812 3.00367,-1.52109 0.61614,0.0385 2.15648,1.54033 1.5596,1.48258 1.65586,2.0217 0.0771,0.50061 0.0771,6.39242 l -2.38752,-0.53912 q 0.11552,-6.60422 -0.0963,-6.98929 -0.34657,-0.65466 -1.15525,-0.38509 -0.78942,0.2503 -1.65585,0.92421 -0.84719,0.67389 -1.59812,1.57883 v 5.41046 l -2.50304,-0.53912 v -9.22279 z"
         style="text-align:start;stroke-width:1.03148"
         id="path5638" />
      <path
         d="m 498.11141,446.26844 -1.03974,-1.75214 q 1.3478,-0.34657 2.98442,-0.65464 1.65587,-0.30808 2.07946,-0.28881 0.42358,0.0193 1.69438,1.27076 1.27078,1.23228 1.71362,1.88692 0.15405,0.23107 0.15405,1.55961 0,1.3093 -0.0578,3.00366 -0.0385,1.69438 -0.0193,2.29126 l -2.38752,-0.55838 0.0193,-0.98196 q -1.55962,1.55959 -2.54157,1.55959 -0.92421,-0.0193 -2.34904,-1.75212 -1.42479,-1.73289 -1.42479,-2.48381 0,-0.59688 0.80867,-1.0975 0.80868,-0.50061 1.96393,-0.77016 1.1745,-0.28882 2.07947,-0.44286 0.90496,-0.15403 1.54035,-0.21179 l 0.0193,-0.51986 q 0.0193,-0.92422 -0.98195,-1.00123 -0.92421,-0.0578 -3.88939,0.82793 h -0.0193 l -0.0193,0.0193 h -0.0193 -0.0193 l -0.0193,0.0193 h -0.0193 -0.0193 l -0.0193,0.0193 h -0.0193 -0.0193 l -0.0193,0.0193 h -0.0193 -0.0193 -0.0193 l -0.0192,0.0193 h -0.0193 -0.0193 l -0.0193,0.0193 z m 0.96271,4.83283 q 0.1733,0.26954 0.65464,0.34657 0.48137,0.0771 1.44408,-0.2503 0.98197,-0.34659 2.11796,-1.19377 l 0.0193,-1.69437 q -5.08314,1.48257 -4.23594,2.79187 z"
         style="text-align:start;stroke-width:1.03148"
         id="path5640" />
    </g>
  </g>
</svg>
