<?xml version="1.0" encoding="UTF-8" standalone="no"?>
<!-- Created with Inkscape (http://www.inkscape.org/) -->

<svg
   width="470.22217mm"
   height="149.99997mm"
   viewBox="0 0 470.22216 149.99997"
   version="1.1"
   id="svg5"
   inkscape:version="1.3.2 (091e20e, 2023-11-25, custom)"
   sodipodi:docname="imagotipo_FUENTEOVEJUNA.svg"
   inkscape:export-filename="imagotipo.svg"
   inkscape:export-xdpi="96"
   inkscape:export-ydpi="96"
   xmlns:inkscape="http://www.inkscape.org/namespaces/inkscape"
   xmlns:sodipodi="http://sodipodi.sourceforge.net/DTD/sodipodi-0.dtd"
   xmlns="http://www.w3.org/2000/svg"
   xmlns:svg="http://www.w3.org/2000/svg">
  <sodipodi:namedview
     id="namedview7"
     pagecolor="#ffffff"
     bordercolor="#000000"
     borderopacity="0.25"
     inkscape:showpageshadow="2"
     inkscape:pageopacity="0.0"
     inkscape:pagecheckerboard="false"
     inkscape:deskcolor="#d1d1d1"
     inkscape:document-units="mm"
     showgrid="false"
     inkscape:zoom="0.26110522"
     inkscape:cx="425.11597"
     inkscape:cy="70.852661"
     inkscape:window-width="1920"
     inkscape:window-height="1009"
     inkscape:window-x="-8"
     inkscape:window-y="-8"
     inkscape:window-maximized="1"
     inkscape:current-layer="text4976-8"
     showguides="false">
    <sodipodi:guide
       position="-904.78675,286.67036"
       orientation="-1,0"
       id="guide26738"
       inkscape:locked="false"
       inkscape:label=""
       inkscape:color="rgb(0,134,229)" />
    <sodipodi:guide
       position="-979.03674,290.29536"
       orientation="-1,0"
       id="guide28192"
       inkscape:locked="false"
       inkscape:label=""
       inkscape:color="rgb(0,134,229)" />
    <inkscape:grid
       type="xygrid"
       id="grid30737"
       empspacing="0"
       originx="0"
       originy="0"
       spacingy="1"
       spacingx="1"
       units="mm"
       visible="false" />
    <sodipodi:guide
       position="-830.53675,286.67036"
       orientation="-1,0"
       id="guide31830"
       inkscape:locked="false"
       inkscape:label=""
       inkscape:color="rgb(0,134,229)" />
    <sodipodi:guide
       position="-1053.2867,286.67036"
       orientation="1,0"
       id="guide33284"
       inkscape:locked="false" />
    <sodipodi:guide
       position="-756.28675,496.67036"
       orientation="1,0"
       id="guide33286"
       inkscape:locked="false" />
    <sodipodi:guide
       position="-892.16876,496.67036"
       orientation="0,-1"
       id="guide33288"
       inkscape:locked="false" />
    <sodipodi:guide
       position="-851.12927,286.67036"
       orientation="0,-1"
       id="guide33290"
       inkscape:locked="false" />
    <sodipodi:guide
       position="-741.18398,444.17036"
       orientation="0,1"
       id="guide33292"
       inkscape:locked="false"
       inkscape:label=""
       inkscape:color="rgb(0,134,229)" />
    <sodipodi:guide
       position="-714.83764,391.67036"
       orientation="0,1"
       id="guide34746"
       inkscape:locked="false"
       inkscape:label=""
       inkscape:color="rgb(0,134,229)" />
    <sodipodi:guide
       position="-695.58453,339.17036"
       orientation="0,1"
       id="guide36926"
       inkscape:locked="false"
       inkscape:label=""
       inkscape:color="rgb(0,134,229)" />
    <sodipodi:guide
       position="-415.68716,569.57889"
       orientation="0,-1"
       id="guide2825"
       inkscape:locked="false" />
    <sodipodi:guide
       position="-385.23481,469.98179"
       orientation="0,-1"
       id="guide2827"
       inkscape:locked="false" />
    <sodipodi:guide
       position="268.76112,28.154322"
       orientation="0,-1"
       id="guide6297"
       inkscape:locked="false" />
    <sodipodi:guide
       position="121.12363,181.6061"
       orientation="0,-1"
       id="guide6299"
       inkscape:locked="false" />
    <sodipodi:guide
       position="47.569457,31.749942"
       orientation="0,-1"
       id="guide6301"
       inkscape:locked="false" />
  </sodipodi:namedview>
  <defs
     id="defs2">
    <rect
       x="2924.5935"
       y="164.04877"
       width="1583.9192"
       height="1055.0033"
       id="rect4978-1" />
  </defs>
  <g
     inkscape:label="Capa 1"
     inkscape:groupmode="layer"
     id="layer1"
     transform="translate(-1053.2868,-346.67039)">
    <g
       id="g5948"
       transform="translate(-5.3094519,0.12476839)"
       style="fill:#52664d;fill-opacity:1;stroke:#52664d;stroke-width:0;stroke-dasharray:none;stroke-opacity:1">
      <g
         id="g2458"
         transform="matrix(1.5569992,0,0,1.5569992,-92.772049,-202.83089)"
         style="fill:#52664d;fill-opacity:1;stroke:#52664d;stroke-width:0;stroke-dasharray:none;stroke-opacity:1">
        <path
           d="m 750.19322,448.17481 c -1.32739,-0.48282 -3.62016,-1.20675 -5.06826,-1.81002 -3.49948,-1.08609 -3.62011,-4.9477 -0.24153,-6.0337 3.37878,-1.08609 2.17209,-3.74088 -1.56879,-3.25819 -2.77545,0.36265 -3.13737,-0.1209 -3.74082,-4.22346 -0.24154,-2.5341 0,-5.06822 0.48237,-5.67162 0.60314,-0.72386 1.08608,-2.65478 1.08608,-4.34421 0,-1.68944 0.48303,-3.62019 1.08609,-4.22354 2.17206,-2.29277 2.05146,-9.53316 -0.24155,-11.46384 -2.89612,-2.41344 -3.13746,-12.42927 -0.36163,-15.5668 2.5341,-2.77543 2.89612,-11.70519 0.84468,-19.42818 -2.41341,-9.17108 -2.77545,-11.94651 -2.05137,-15.08411 0.96535,-3.74079 3.13746,-3.98212 3.25813,-0.24177 0,1.44801 0.36167,1.93076 0.72404,1.20675 0.24153,-0.84475 1.81011,-1.56876 3.37884,-1.56876 1.4481,0 3.37879,-0.84475 4.22353,-1.81017 1.93077,-2.41336 7.24036,-2.41336 7.24036,0 0,0.96542 1.32736,2.05143 3.01684,2.53418 3.13748,0.72387 3.49943,1.44802 2.29272,4.58554 -1.08609,2.77544 -7.24037,2.41343 -10.01582,-0.60298 -2.29276,-2.5341 -2.29276,-2.5341 -3.62019,-0.1209 -0.84466,1.56868 -0.84466,2.65477 0.24153,3.74086 1.68938,1.68936 -0.724,3.74079 -4.2235,3.74079 -1.56873,0 -2.17215,0.96534 -2.17215,3.6202 0,3.86152 2.17215,4.82688 5.06826,2.05143 1.93077,-1.81002 7.84368,-5.67163 8.80902,-5.67163 0.36231,0 0.60312,1.0861 0.60312,2.29277 0,2.77545 1.93077,4.34427 3.01676,2.5341 0.48238,-0.72385 0.1206,-2.17201 -0.72401,-3.13744 -0.724,-0.96535 -1.20664,-1.8101 -0.96537,-2.05144 5.06823,-2.89603 5.913,-3.01684 10.86051,-1.81009 7.36098,1.68943 10.73992,5.67162 10.73992,12.54993 0,5.55096 -1.44814,6.87827 -3.62021,3.01685 -2.41347,-4.70627 -4.94759,-6.15429 -10.3778,-6.15429 -4.58563,0 -5.91298,0.60298 -10.13646,4.82688 -2.65487,2.65485 -4.82687,5.55097 -4.82687,6.27498 0,0.84468 1.44803,2.65477 3.25809,3.86145 3.13753,2.29276 3.13753,2.29276 6.87833,-2.29269 3.62018,-4.34415 4.22348,-4.58556 9.05043,-3.86154 6.99896,0.84469 8.92973,2.77546 8.08503,7.84366 -0.36231,2.29277 0,4.94755 0.72408,6.15437 1.81007,3.01671 -0.96537,15.44597 -3.86155,17.01474 -4.46489,2.41343 -9.29178,1.44801 -12.5499,-2.53411 -1.68944,-2.05151 -3.13748,-4.2236 -3.13748,-4.82696 0,-1.93074 -4.3442,-1.20666 -6.39564,1.08611 -2.65479,2.89609 -2.53412,3.74085 1.32739,8.20566 7.24033,8.44715 15.44608,9.89514 21.60035,3.86151 3.98222,-3.86151 3.98222,-3.86151 3.98222,1.32744 0,4.10286 -0.72408,5.91302 -3.49953,8.56766 -4.58553,4.70634 -8.80914,5.55102 -13.99796,3.13752 -3.37893,-1.68935 -4.22353,-2.77538 -4.22353,-5.5509 0,-2.05142 -0.48306,-3.62012 -1.20671,-3.62012 -0.60313,0 -1.20672,0.60299 -1.20672,1.20671 0,0.72384 -0.60312,1.20666 -1.3274,1.20666 -0.84475,0 -1.08609,-1.20666 -0.60312,-3.0167 0.72399,-2.89618 -0.84468,-4.22361 -2.29279,-1.81017 -1.32732,2.05143 -5.06819,1.32743 -5.79224,-1.20669 -0.96537,-3.98218 -2.65473,-2.77543 -4.2235,3.13746 -1.81011,6.63696 -1.20675,7.84373 3.37882,6.87837 3.49955,-0.60297 3.49955,-0.60297 2.77548,5.55089 -0.84475,6.99899 0.48237,7.96433 4.34417,3.01678 2.89614,-3.6202 5.06823,-3.25812 8.08506,1.44811 2.17206,3.13743 2.05137,3.25816 -0.60313,5.43027 -2.89605,2.2927 -7.24033,2.77546 -11.58446,1.08601 z m 26.78921,-42.47667 c 0.1206,-4.34413 -0.24154,-5.79223 -1.56873,-5.79223 -0.96537,0 -1.68943,0.60298 -1.68943,1.20669 0,0.72387 -1.56875,1.20676 -3.37872,1.20676 -1.93085,0 -4.34423,0.72386 -5.55101,1.56875 -1.93075,1.44802 -1.68942,1.81003 2.53412,4.70613 2.53408,1.81011 5.67154,3.13752 6.99897,3.01686 2.0515,-0.24179 2.41347,-1.20675 2.6548,-5.91296 z m -22.32431,-0.36265 c 0.9653,-2.17205 2.29275,-3.01679 4.70615,-3.01679 5.5509,0 7.48175,-1.20676 5.67159,-3.37878 -1.32732,-1.56877 -0.96529,-1.81009 3.37884,-1.20676 5.67167,0.72387 8.6885,-0.96536 9.17114,-5.18888 0.24154,-2.29277 -0.24152,-3.01685 -2.65481,-3.25818 -3.49953,-0.36194 -12.79131,4.70628 -12.30856,6.75762 0.1206,0.84468 -1.44804,1.4481 -3.98222,1.4481 -3.37881,0 -4.22354,-0.48208 -4.22354,-2.41344 0,-1.20675 -1.08609,-2.89611 -2.29276,-3.62019 -1.93073,-0.96536 -2.77545,-0.48209 -4.94753,3.01686 -1.4481,2.29275 -3.13747,4.22345 -3.74088,4.22345 -1.93077,0 -1.20673,1.93084 2.29278,5.79229 3.98219,4.46487 7.11966,4.82696 8.9298,0.8447 z"
           id="path102-5-6-3-0-6-6-2-5"
           sodipodi:nodetypes="ccscccscccccccscsccccssscssccccscsssccccsccscccsccsssscccccccccccssscccccscccccssccscc"
           style="fill:#796855;fill-opacity:1;stroke:#52664d;stroke-width:0;stroke-dasharray:none;stroke-opacity:1;paint-order:fill markers stroke"
           inkscape:export-filename="imagotipo_FUENTEOVEJUNA"
           inkscape:export-xdpi="96"
           inkscape:export-ydpi="96" />
        <path
           d="m 807.27128,447.93341 c -2.65482,-0.84462 -3.37884,-1.93069 -3.37884,-4.70613 0,-2.05152 0.72402,-3.86162 1.81005,-4.22355 0.96537,-0.48209 1.81011,-1.44809 1.81011,-2.41352 0,-1.086 -2.17209,-1.68942 -7.48167,-1.93068 -7.24038,-0.36192 -7.48169,-0.48208 -10.13652,-5.18895 -2.5341,-4.7062 -3.62009,-12.67059 -1.68942,-12.67059 0.48238,0 1.81015,1.32741 2.89621,3.01683 2.89605,4.3442 8.6883,6.999 13.39458,6.15431 3.8615,-0.72387 10.61915,-6.15431 11.70524,-9.29183 0.84468,-2.17202 -2.65483,-8.32638 -4.58559,-8.32638 -0.84472,0 -2.6548,1.44808 -4.10283,3.37884 -3.8615,4.82695 -6.87836,6.15438 -11.82593,4.94754 -5.18889,-1.086 -6.2749,-2.65476 -6.39561,-8.92965 v -8.44715 c -0.24154,-9.17108 2.77553,-13.87736 8.68839,-13.87736 3.62019,0 9.53315,4.10294 9.53315,6.75773 0,7.72304 15.32535,-2.77553 17.98016,-12.42923 1.81005,-6.51637 1.68943,-9.41241 -0.8447,-11.58459 -3.0168,-2.77551 -4.22352,-2.53418 -3.25812,0.36267 0.60312,1.8101 0.24153,2.41343 -1.56876,2.41343 -2.17209,0 -2.29276,-0.60297 -1.81006,-4.94755 0.724,-4.7062 0.60312,-4.82686 -1.68947,-3.49951 -1.44802,0.96541 -3.74082,1.20675 -5.67156,0.72385 -2.89614,-0.72385 -3.25818,-1.32735 -2.89614,-4.70613 0.36165,-3.37885 0.96536,-3.9822 5.06819,-5.06827 3.62019,-0.84476 5.30961,-0.72387 8.08506,0.96541 1.93075,1.08608 4.34422,1.68935 5.1889,1.32743 2.17211,-0.84476 4.22353,5.30947 4.46488,12.79119 0.1206,6.27497 -4.82687,21.72102 -6.99899,21.72102 -0.84465,0 -1.5687,0.4821 -1.5687,1.08611 0,0.60297 -1.32743,1.44807 -3.01679,1.81002 -1.56877,0.36192 -3.49954,1.81016 -4.22361,3.13751 -0.72399,1.32744 -2.5341,2.41344 -3.98218,2.41344 -3.3788,0 -6.15425,1.81017 -5.30955,3.37879 0.48303,0.60297 3.01677,1.44816 5.55096,1.93085 3.37875,0.48205 4.70619,1.20658 4.22353,2.29275 -0.24153,0.84468 0.3623,2.41344 1.5687,3.49953 2.05139,1.81009 2.53412,1.56868 6.99897,-3.62019 2.89614,-3.3788 4.22354,-5.67156 3.25824,-6.03372 -1.68945,-0.48207 -1.93083,-5.79221 -0.36163,-6.75757 0.60312,-0.48208 1.6894,1.9307 2.41339,5.18897 1.08608,5.0682 0.84476,6.99897 -1.20672,13.27386 -2.77548,8.08507 -2.41345,17.85956 0.60314,18.94558 2.17215,0.84468 3.74084,14.60136 2.05137,16.65272 -1.56866,1.93077 -18.58347,2.29287 -23.28966,0.4821 z m 11.22251,-3.86139 c 1.93075,-0.1209 4.10284,0.1209 4.94758,0.60299 2.05139,1.32741 4.94757,-3.2582 3.98216,-6.15424 -0.9654,-2.89618 -6.03359,-3.25818 -7.11963,-0.60298 -0.3623,0.96541 -1.44816,1.81017 -2.53418,1.81017 -2.17215,0 -2.17215,-0.1209 -0.60312,-4.10286 0.84476,-2.29278 2.0514,-3.13752 4.22357,-3.13752 3.13744,0 3.49948,-1.08596 2.29269,-5.67155 -0.9653,-3.37887 -2.6547,-3.6202 -3.86142,-0.36195 -0.48305,1.32744 -2.77553,3.3788 -5.06829,4.58555 -4.94757,2.77545 -5.79228,4.58554 -2.41341,5.43028 3.37879,0.84477 3.01681,4.34421 -0.72402,5.67164 -3.49947,1.44801 -2.65479,4.10279 0.96538,2.89604 1.32741,-0.36192 4.10289,-0.84461 5.91296,-0.96528 z m -16.89415,-33.54694 c 3.25817,-1.56877 5.79227,-3.37885 5.91296,-4.22361 0,-0.72387 -1.81011,-2.05143 -4.10291,-2.77536 -7.36096,-2.41351 -14.72196,3.62012 -10.13641,8.20565 1.81014,1.81009 1.56873,1.93077 8.32636,-1.20668 z m 3.25817,-12.55 c 3.13748,-0.96534 3.49947,-2.6547 0.60312,-3.74072 -1.20671,-0.48282 -3.25815,-1.81017 -4.46487,-3.01685 -2.65478,-2.41351 -3.25812,-2.5341 -6.03365,-1.4481 -2.29276,0.84476 -2.65471,7.24033 -0.36228,8.08501 2.05145,0.96541 6.999,0.96541 10.25711,0.1209 z"
           id="path104-0-3-1-2-7-6-8-1"
           sodipodi:nodetypes="cscsccscccsccccssccssccssccccsscssccccccccccccccscscscccsccccccsccccccc"
           style="fill:#796855;fill-opacity:1;stroke:#52664d;stroke-width:0;stroke-dasharray:none;stroke-opacity:1;paint-order:fill markers stroke" />
        <path
           d="m 812.58083,383.01176 c -3.86152,-5.06821 -10.37784,-7.72306 -15.44606,-6.03363 -2.17215,0.72386 -4.82686,2.77551 -5.91294,4.46487 -1.20669,1.81017 -2.41342,2.65485 -3.13747,1.93077 -1.3274,-1.32744 3.13747,-12.30853 6.03358,-14.60138 2.05146,-1.68942 12.1879,-0.96534 15.92879,1.0861 3.37877,1.68942 9.0504,7.48164 10.73985,10.49842 3.37875,6.63707 -3.62019,8.92977 -8.20575,2.65485 z m 2.89613,-5.55088 c -0.60312,-1.56884 -1.20671,-1.68951 -2.17211,-0.72387 -0.724,0.72387 -0.96537,2.1721 -0.48303,3.37878 0.60312,1.56876 1.20677,1.68949 2.17214,0.72387 0.72402,-0.72387 0.96541,-2.17218 0.4824,-3.37878 z"
           id="path182-3-6-3-3-83-4-6-9"
           sodipodi:nodetypes="cscscccccscsc"
           style="fill:#796855;fill-opacity:1;stroke:#52664d;stroke-width:0;stroke-dasharray:none;stroke-opacity:1;paint-order:fill markers stroke" />
        <g
           id="text4976-8"
           style="font-size:12px;line-height:0.9;font-family:'Yatra One';-inkscape-font-specification:'Yatra One';white-space:pre;fill:#796855;paint-order:fill markers stroke"
           transform="matrix(0.8215397,0,0,0.8215397,-1560.7647,233.49189)"
           aria-label="FUENTE&#10;OVEJUNA">
          <path
             style="font-size:53.3333px"
             d="m 2953.2337,183.00885 h -17.4933 l 0.053,15.67999 -7.4666,-1.54666 V 161.6222 l 0.053,0.0533 -0.053,-0.10666 h 22.7733 l 4.2667,4.79999 h -19.68 v 11.84 h 13.28 z m 29.7067,-21.43998 7.4133,2.18666 v 24.95999 q 0,3.03999 -4.6933,6.55999 -4.6933,3.46667 -9.9733,3.46667 -3.1467,0 -7.7867,-3.2 -4.64,-3.2 -8.5333,-7.52 -0.053,-0.0533 -0.1067,-0.85333 -0.053,-0.8 -0.1066,-2.08 0,-1.28 -0.053,-2.98666 0,-1.70667 0,-3.57334 0,-1.86666 0,-3.83999 0,-2.02667 0,-3.84 0.053,-1.86667 0.053,-3.57333 0,-1.70667 0,-2.93333 0.053,-1.22667 0.053,-1.97334 v -0.79999 q 0,0.0533 1.8133,0.58666 1.8667,0.53333 3.68,1.06667 l 1.8667,0.53333 q -0.2133,26.77332 0.053,27.09332 2.1867,2.34666 5.6,2.45333 3.4667,0.0533 6.5067,-1.81333 3.04,-1.86667 4.2133,-4.8 z m 21.8134,35.57331 -0.1067,-0.10667 -6.8267,-1.44 v -34.02664 h 22.7734 l 4.2666,4.79999 h -19.68 v 10.24 h 13.28 l 4.2667,4.79999 h -17.4933 v 10.93333 h 17.4933 l 4.2667,4.8 z m 58.8799,-33.38665 v 34.93331 l -7.4666,-1.54666 -17.28,-24.42665 0.1067,25.97331 -7.4667,-1.54666 V 161.6222 l 7.36,2.13333 17.28,24.15999 V 161.6222 Z m 8.0001,2.61333 -4.2667,-4.79999 h 30.24 l 4.2666,4.79999 h -12.8533 l 0.1067,32.31998 -7.4667,-1.54666 v -30.77332 z m 40.9066,30.77332 -0.1067,-0.10667 -6.8267,-1.44 v -34.02664 h 22.7734 l 4.2666,4.79999 h -19.68 v 10.24 h 13.28 l 4.2667,4.79999 h -17.4933 v 10.93333 h 17.4933 l 4.2667,4.8 z"
             id="path1" />
          <path
             style="font-size:53.3333px"
             d="m 2952.3804,214.6355 q -5.3333,-3.52 -10.56,0.37333 -4.2133,3.2 -6.1333,9.22666 -2.08,6.72 0.4266,11.57333 1.2267,2.45333 3.6267,3.89333 5.3867,3.25333 10.56,-0.74667 4.2133,-3.25333 6.0267,-9.33332 1.9733,-6.72 -0.7467,-11.52 -1.1733,-2.13333 -3.2,-3.46666 z m 8.32,2.61333 q 2.0267,1.97333 3.04,4.69333 1.0133,2.66667 0.96,5.49333 0,2.77333 -0.9067,5.65333 -0.8533,2.88 -2.4,5.38666 -1.4933,2.45334 -3.6266,4.42667 -2.1334,1.92 -4.5867,2.93333 -2.4533,1.01333 -5.3333,0.85333 -2.88,-0.16 -5.6534,-1.76 -0.4266,-0.26666 -1.5466,-0.85333 -1.0667,-0.58667 -1.5467,-0.8 -0.4267,-0.26667 -1.3333,-0.8 -0.9067,-0.58666 -1.5467,-1.01333 -0.5867,-0.48 -1.4933,-1.12 -0.8534,-0.69333 -1.76,-1.49333 -0.9067,-0.8 -1.92,-1.81334 -1.9734,-1.86666 -2.9334,-4.47999 -0.9066,-2.61333 -0.8533,-5.38667 0.1067,-2.77333 0.96,-5.59999 0.8533,-2.88 2.3467,-5.38667 1.5466,-2.55999 3.6266,-4.53333 2.08,-2.02666 4.3734,-3.14666 2.3466,-1.17333 5.0133,-1.17333 2.6667,0 5.2267,1.38666 6.9333,3.73333 11.8933,8.53333 z m 20.96,27.25332 0.053,-0.10667 -14.2933,-34.77331 7.4133,1.54666 9.92,24.85332 9.7066,-26.39998 8,1.54666 -12.9066,35.51998 z m 30.9332,0.64 -0.1066,-0.10667 -6.8267,-1.44 v -34.02665 h 22.7733 l 4.2667,4.8 h -19.68 v 10.24 h 13.28 l 4.2667,4.79999 h -17.4934 v 10.93333 h 17.4934 l 4.2666,4.8 z m 38.1333,-33.38665 v 32.58665 q 0,1.97333 -1.6533,4.47999 -1.6533,2.56 -4.8,4.53334 -3.1466,2.02666 -6.6133,2.02666 -5.92,0 -11.36,-4.64 l 1.3333,-0.96 q 3.4667,1.22667 6.24,1.28 2.7734,0.0533 4.48,-0.8 1.76,-0.8 2.88,-2.39999 1.1734,-1.54667 1.6,-3.30667 0.48,-1.81333 0.48,-3.84 v -31.14665 z m 31.0401,-2.18667 7.4133,2.18667 v 24.95999 q 0,3.03999 -4.6933,6.55999 -4.6934,3.46667 -9.9734,3.46667 -3.1466,0 -7.7866,-3.2 -4.64,-3.2 -8.5334,-7.52 -0.053,-0.0533 -0.1066,-0.85333 -0.053,-0.8 -0.1067,-2.08 0,-1.28 -0.053,-2.98666 0,-1.70667 0,-3.57334 0,-1.86666 0,-3.83999 0,-2.02667 0,-3.84 0.053,-1.86667 0.053,-3.57333 0,-1.70667 0,-2.93333 0.053,-1.22667 0.053,-1.97334 v -0.8 q 0,0.0533 1.8134,0.58667 1.8666,0.53333 3.68,1.06667 l 1.8666,0.53333 q -0.2133,26.77332 0.053,27.09332 2.1866,2.34666 5.6,2.45333 3.4666,0.0533 6.5066,-1.81333 3.04,-1.86667 4.2134,-4.8 z m 46.9866,2.18667 v 34.93331 l -7.4666,-1.54666 -17.28,-24.42666 0.1066,25.97332 -7.4666,-1.54666 v -35.51998 l 7.36,2.13333 17.28,24.15999 v -26.29332 z m 24.5334,0.0533 -0.053,0.16 14.2933,34.71998 -6.88,-1.54666 -3.7333,-9.76 -12.5867,0.85334 -3.84,10.45332 -7.4667,-1.54666 12.9067,-35.51998 z m -2.6667,7.2 -4.5866,12.58666 9.1733,-0.64 z"
             id="path2" />
        </g>
      </g>
    </g>
  </g>
</svg>
