<?xml version="1.0" encoding="UTF-8" standalone="no"?>
<!-- Created with Inkscape (http://www.inkscape.org/) -->

<svg
   width="45.211216mm"
   height="47.449646mm"
   viewBox="0 0 45.211216 47.449646"
   version="1.1"
   id="svg973"
   inkscape:version="1.2.1 (9c6d41e410, 2022-07-14)"
   sodipodi:docname="logoconcenefa.svg"
   inkscape:export-filename="pruebas.png"
   inkscape:export-xdpi="96"
   inkscape:export-ydpi="96"
   xmlns:inkscape="http://www.inkscape.org/namespaces/inkscape"
   xmlns:sodipodi="http://sodipodi.sourceforge.net/DTD/sodipodi-0.dtd"
   xmlns="http://www.w3.org/2000/svg"
   xmlns:svg="http://www.w3.org/2000/svg">
  <sodipodi:namedview
     id="namedview975"
     pagecolor="#ffffff"
     bordercolor="#000000"
     borderopacity="0.25"
     inkscape:showpageshadow="2"
     inkscape:pageopacity="1"
     inkscape:pagecheckerboard="0"
     inkscape:deskcolor="#d1d1d1"
     inkscape:document-units="mm"
     showgrid="false"
     showguides="true"
     inkscape:zoom="1.0444209"
     inkscape:cx="484.00026"
     inkscape:cy="739.16558"
     inkscape:window-width="1920"
     inkscape:window-height="1009"
     inkscape:window-x="-8"
     inkscape:window-y="-8"
     inkscape:window-maximized="1"
     inkscape:current-layer="layer1">
    <inkscape:grid
       type="xygrid"
       id="grid1063"
       snapvisiblegridlinesonly="true"
       dotted="false"
       originx="-40.279497"
       originy="-37.746197" />
    <inkscape:grid
       type="xygrid"
       id="grid1065"
       color="#a3e1ff"
       opacity="0.14901961"
       snapvisiblegridlinesonly="true"
       originx="-40.279497"
       originy="-37.746197" />
  </sodipodi:namedview>
  <defs
     id="defs970" />
  <g
     inkscape:label="Capa 1"
     inkscape:groupmode="layer"
     id="layer1"
     transform="translate(-68.815828,-240.48957)">
    <path
       d="m 74.09272,287.44277 c -0.653779,-0.23774 -1.783045,-0.59435 -2.49624,-0.8915 -1.723606,-0.53493 -1.783044,-2.43684 -0.118876,-2.97172 1.664145,-0.53495 1.069804,-1.84248 -0.77268,-1.60475 -1.366974,0.17853 -1.545267,-0.0594 -1.842461,-2.0802 -0.118876,-1.24812 0,-2.49624 0.237732,-2.79343 0.297193,-0.35659 0.534925,-1.30756 0.534925,-2.13963 0,-0.8321 0.237732,-1.78303 0.534904,-2.08021 1.069826,-1.12925 1.010387,-4.69532 -0.118879,-5.64627 -1.426413,-1.18871 -1.545268,-6.12174 -0.178316,-7.66706 1.24812,-1.36697 1.426437,-5.76513 0.416048,-9.56893 -1.188682,-4.517 -1.366975,-5.88399 -1.010388,-7.42931 0.475485,-1.84245 1.545291,-1.9613 1.604728,-0.11888 0,0.7132 0.178317,0.95095 0.356588,0.59437 0.118876,-0.41605 0.891532,-0.77265 1.664168,-0.77265 0.713239,0 1.664166,-0.41607 2.080214,-0.89154 0.950972,-1.18866 3.566067,-1.18866 3.566067,0 0,0.47547 0.65378,1.01039 1.485875,1.24814 1.545312,0.35659 1.723584,0.7132 1.129264,2.25849 -0.534945,1.367 -3.566088,1.18867 -4.933085,-0.29717 -1.129244,-1.24812 -1.129244,-1.24812 -1.783022,-0.0594 -0.416048,0.77266 -0.416048,1.30756 0.118876,1.84248 0.832073,0.83208 -0.356609,1.84247 -2.080216,1.84247 -0.772632,0 -1.069826,0.47548 -1.069826,1.78301 0,1.90193 1.069826,2.37739 2.496262,1.0104 0.950951,-0.8915 3.863239,-2.79341 4.338702,-2.79341 0.178315,0 0.297193,0.5349 0.297193,1.12924 0,1.367 0.950927,2.13966 1.485852,1.24812 0.237709,-0.35661 0.05965,-1.0698 -0.356631,-1.54527 -0.356587,-0.47548 -0.594319,-0.89154 -0.475464,-1.01039 2.49624,-1.42641 2.912288,-1.48588 5.349072,-0.89152 3.625495,0.83208 5.289695,2.79341 5.289695,6.18117 0,2.73398 -0.71322,3.38776 -1.78305,1.48589 -1.18871,-2.31798 -2.43682,-3.03118 -5.111332,-3.03118 -2.258556,0 -2.91229,0.29715 -4.992483,2.37736 -1.307582,1.30758 -2.377386,2.73401 -2.377386,3.0906 0,0.41605 0.713219,1.30756 1.604707,1.90189 1.545313,1.12927 1.545313,1.12927 3.387774,-1.12922 1.783022,-2.13964 2.080195,-2.25851 4.457557,-1.9019 3.447183,0.41602 4.398163,1.36697 3.982123,3.86321 -0.17832,1.12927 0,2.43683 0.35659,3.03119 0.89153,1.48581 -0.47547,7.60757 -1.90191,8.38023 -2.199092,1.1887 -4.576434,0.71322 -6.181142,-1.24812 -0.832096,-1.01041 -1.545313,-2.08021 -1.545313,-2.37738 0,-0.95096 -2.139631,-0.59433 -3.15002,0.53491 -1.307537,1.42643 -1.24812,1.84247 0.653781,4.04153 3.566066,4.16044 7.60758,4.87364 10.638744,1.90191 1.96136,-1.90191 1.96136,-1.90191 1.96136,0.65376 0,2.02082 -0.35664,2.9123 -1.72363,4.21984 -2.258486,2.31798 -4.338682,2.73402 -6.894361,1.54532 -1.66419,-0.83208 -2.080192,-1.367 -2.080192,-2.73398 0,-1.01036 -0.237755,-1.78303 -0.594341,-1.78303 -0.297193,0 -0.594341,0.29716 -0.594341,0.59435 0,0.35659 -0.297192,0.59433 -0.65378,0.59433 -0.416047,0 -0.534924,-0.59433 -0.297192,-1.48584 0.356631,-1.42643 -0.416048,-2.08024 -1.129242,-0.89153 -0.653781,1.01036 -2.496242,0.65378 -2.852873,-0.59435 -0.475464,-1.96135 -1.307535,-1.36697 -2.080193,1.54529 -0.891511,3.2689 -0.59434,3.86324 1.664169,3.38776 1.723605,-0.29715 1.723605,-0.29715 1.366997,2.73399 -0.416048,3.44721 0.237731,3.92266 2.139652,1.48584 1.426414,-1.783 2.49622,-1.60469 3.982071,0.71325 1.069826,1.54527 1.010366,1.60473 -0.297171,2.67456 -1.426413,1.12922 -3.566043,1.36698 -5.705699,0.53488 z m 13.194391,-20.9209 c 0.0596,-2.13966 -0.11887,-2.85285 -0.77263,-2.85285 -0.475484,0 -0.83209,0.29714 -0.83209,0.59431 0,0.35662 -0.772636,0.59435 -1.664125,0.59435 -0.950969,0 -2.139654,0.35659 -2.733995,0.77265 -0.950949,0.71323 -0.832095,0.89154 1.24812,2.31795 1.248122,0.89152 2.793395,1.54529 3.447145,1.48588 1.010435,-0.11889 1.188725,-0.59436 1.307575,-2.91229 z m -10.99532,-0.17853 c 0.475464,-1.06983 1.129266,-1.48589 2.317924,-1.48589 2.733971,0 3.684945,-0.59434 2.793411,-1.66414 -0.653757,-0.77266 -0.475442,-0.89151 1.664171,-0.59435 2.793406,0.35659 4.279284,-0.47547 4.516994,-2.55569 0.11887,-1.12926 -0.11888,-1.48585 -1.30754,-1.60473 -1.723628,-0.17854 -6.300062,2.31796 -6.062307,3.32833 0.05943,0.41606 -0.713195,0.7132 -1.961316,0.7132 -1.664167,0 -2.080214,-0.23773 -2.080214,-1.18868 0,-0.59435 -0.534925,-1.42641 -1.129266,-1.78303 -0.950928,-0.47546 -1.366975,-0.23773 -2.436801,1.48586 -0.713218,1.12927 -1.54529,2.08018 -1.842462,2.08018 -0.950971,0 -0.594339,0.95098 1.129244,2.85288 1.961337,2.19907 3.506628,2.37738 4.398162,0.41606 z"
       id="path102-5-6-3-0-1"
       sodipodi:nodetypes="ccscccscccccccscsccccssscssccccscsssccccsccscccsccsssscccccccccccssscccccscccccssccscc"
       style="fill:#52664d;fill-opacity:1;stroke-width:0.594342"
       inkscape:export-filename="logotipo.svg"
       inkscape:export-xdpi="96"
       inkscape:export-ydpi="96" />
    <path
       d="m 102.20519,287.32389 c -1.30756,-0.41601 -1.66417,-0.95096 -1.66417,-2.31793 0,-1.01039 0.35661,-1.90192 0.89152,-2.0802 0.47548,-0.23775 0.89152,-0.71324 0.89152,-1.18869 0,-0.53491 -1.06983,-0.83211 -3.684939,-0.95096 -3.56609,-0.17854 -3.68494,-0.23774 -4.9925,-2.55567 -1.24814,-2.31795 -1.78302,-6.24063 -0.8321,-6.24063 0.23776,0 0.89153,0.65377 1.42644,1.48585 1.42643,2.13966 4.27929,3.44721 6.597229,3.03119 1.90191,-0.35661 5.23024,-3.03119 5.76514,-4.57645 0.41603,-1.06982 -1.30756,-4.10099 -2.25851,-4.10099 -0.41605,0 -1.30755,0.71322 -2.02076,1.66416 -1.90189,2.37739 -3.387769,3.03116 -5.824569,2.43683 -2.5557,-0.53493 -3.0906,-1.30758 -3.15002,-4.39816 v -4.16041 c -0.11888,-4.51702 1.36697,-6.83497 4.27925,-6.83497 1.78306,0 4.695339,2.02078 4.695339,3.32834 0,3.80382 7.54814,-1.36703 8.85572,-6.12174 0.89152,-3.20947 0.83208,-4.63587 -0.41604,-5.7057 -1.48586,-1.36703 -2.08019,-1.24815 -1.60474,0.17853 0.29719,0.89154 0.11888,1.18868 -0.77262,1.18868 -1.06981,0 -1.12927,-0.29714 -0.89152,-2.43679 0.35658,-2.31796 0.29715,-2.37738 -0.83211,-1.72363 -0.7132,0.4755 -1.84244,0.59438 -2.79342,0.35662 -1.42641,-0.35662 -1.60471,-0.65377 -1.42641,-2.31793 0.17832,-1.66415 0.47549,-1.96135 2.49624,-2.49625 1.78302,-0.41605 2.61512,-0.35658 3.98212,0.47548 0.95092,0.53491 2.13965,0.83207 2.55568,0.65376 1.0698,-0.41603 2.08022,2.61512 2.19907,6.30006 0.0596,3.09058 -2.3774,10.6982 -3.44719,10.6982 -0.41603,0 -0.77265,0.23771 -0.77265,0.53492 0,0.29719 -0.65381,0.71323 -1.48586,0.89152 -0.77267,0.17831 -1.72359,0.89153 -2.08022,1.54528 -0.35659,0.65379 -1.24812,1.1887 -1.96134,1.1887 -1.66415,0 -3.03114,0.8915 -2.61512,1.66415 0.23776,0.29718 1.48586,0.71322 2.734,0.95095 1.66414,0.23774 2.31792,0.59432 2.08019,1.12928 -0.11888,0.41604 0.17854,1.18868 0.77268,1.72358 1.01037,0.89153 1.2481,0.77265 3.44717,-1.78302 1.42644,-1.66418 2.08022,-2.79344 1.60476,-2.97175 -0.8321,-0.23773 -0.95098,-2.85285 -0.17832,-3.32832 0.29717,-0.23774 0.8321,0.95096 1.18869,2.55571 0.53491,2.49624 0.41603,3.44717 -0.59435,6.53775 -1.367,3.9821 -1.18869,8.79633 0.2972,9.33122 1.06982,0.41605 1.84243,7.19157 1.01036,8.20194 -0.77264,0.95097 -9.15292,1.12926 -11.47084,0.23773 z m 5.5274,-1.90189 c 0.95096,-0.0595 2.02079,0.0595 2.43683,0.29718 1.01036,0.65375 2.43681,-1.60475 1.96129,-3.03117 -0.47545,-1.42644 -2.97171,-1.60472 -3.5066,-0.29715 -0.17853,0.47544 -0.71322,0.89149 -1.24815,0.89149 -1.06983,0 -1.06983,-0.0596 -0.29715,-2.02078 0.41605,-1.12924 1.01038,-1.54528 2.08019,-1.54528 1.54531,0 1.72362,-0.5349 1.12925,-2.79342 -0.47544,-1.66416 -1.30753,-1.78303 -1.90187,-0.17832 -0.23776,0.65379 -1.36702,1.66416 -2.49627,2.25851 -2.43683,1.36699 -2.85284,2.25849 -1.18868,2.67454 1.66414,0.41605 1.48588,2.13966 -0.35661,2.79343 -1.7236,0.7132 -1.30755,2.02078 0.47549,1.42642 0.65374,-0.17832 2.02077,-0.41603 2.91228,-0.47547 z m -8.320809,-16.52279 c 1.604699,-0.77264 2.852839,-1.66415 2.912279,-2.08019 0,-0.35661 -0.89152,-1.01039 -2.0208,-1.36698 -3.625469,-1.18871 -7.250979,1.78302 -4.992469,4.04153 0.89153,0.89151 0.77265,0.95095 4.10099,-0.59436 z m 1.604699,-6.18119 c 1.54529,-0.47546 1.72362,-1.30755 0.29717,-1.84244 -0.59434,-0.23775 -1.604719,-0.89152 -2.199049,-1.48587 -1.30758,-1.18868 -1.60474,-1.24812 -2.97173,-0.71319 -1.12925,0.41605 -1.30755,3.56604 -0.17856,3.98209 1.01041,0.47546 3.44722,0.47546 5.051949,0.0594 z"
       id="path104-0-3-1-2-9"
       sodipodi:nodetypes="cscsccscccsccccssccssccssccccsscssccccccccccccccscscscccsccccccsccccccc"
       style="fill:#52664d;fill-opacity:1;stroke-width:0.594342" />
    <path
       d="m 104.82031,255.34818 c -1.9019,-2.49624 -5.111379,-3.8038 -7.607619,-2.97172 -1.06982,0.35659 -2.37737,1.367 -2.91229,2.19907 -0.59435,0.89152 -1.18869,1.30757 -1.5453,0.95097 -0.65378,-0.65381 1.5453,-6.06231 2.97171,-7.19159 1.01038,-0.83208 6.002879,-0.47548 7.845369,0.53491 1.66414,0.8321 4.45759,3.68494 5.28966,5.1708 1.66418,3.2689 -1.78303,4.39814 -4.04153,1.30756 z m 1.42643,-2.73397 c -0.29719,-0.77266 -0.59437,-0.83209 -1.06983,-0.35662 -0.3566,0.35662 -0.47548,1.06981 -0.23775,1.66417 0.29716,0.77265 0.59436,0.83208 1.06983,0.35659 0.35658,-0.35659 0.47547,-1.06983 0.23775,-1.66414 z"
       id="path182-3-6-3-3-8"
       sodipodi:nodetypes="cscscccccscsc"
       style="fill:#52664d;fill-opacity:1;stroke-width:0.594342" />
  </g>
</svg>
