<?xml version="1.0" encoding="UTF-8" standalone="no"?>
<!-- Created with Inkscape (http://www.inkscape.org/) -->

<svg
   width="256.75812mm"
   height="99.999985mm"
   viewBox="0 0 256.75812 99.999985"
   version="1.1"
   id="svg5"
   sodipodi:docname="todoauna.svg"
   xmlns:inkscape="http://www.inkscape.org/namespaces/inkscape"
   xmlns:sodipodi="http://sodipodi.sourceforge.net/DTD/sodipodi-0.dtd"
   xmlns="http://www.w3.org/2000/svg"
   xmlns:svg="http://www.w3.org/2000/svg">
  <sodipodi:namedview
     id="namedview163"
     pagecolor="#ffffff"
     bordercolor="#000000"
     borderopacity="0.25"
     inkscape:showpageshadow="2"
     inkscape:pageopacity="0.0"
     inkscape:pagecheckerboard="0"
     inkscape:deskcolor="#d1d1d1"
     inkscape:document-units="mm"
     showgrid="false"
     showguides="false">
    <sodipodi:guide
       position="79.040376,0.071848175"
       orientation="0,-1"
       id="guide1160"
       inkscape:locked="false" />
    <sodipodi:guide
       position="76.130055,99.372649"
       orientation="0,-1"
       id="guide1162"
       inkscape:locked="false" />
  </sodipodi:namedview>
  <defs
     id="defs2" />
  <g
     id="layer1"
     transform="translate(-1692.8136,-1016.3331)">
    <g
       id="g5948"
       transform="translate(-5.3094519,0.12476839)"
       style="fill:#52664d;fill-opacity:1;stroke:#52664d;stroke-width:0;stroke-dasharray:none;stroke-opacity:1">
      <g
         id="g2458"
         transform="matrix(1.5569992,0,0,1.5569992,-92.772049,-202.83089)"
         style="fill:#52664d;fill-opacity:1;stroke:#52664d;stroke-width:0;stroke-dasharray:none;stroke-opacity:1">
        <g
           id="g5674-0-1-4"
           style="fill:#796855;fill-opacity:1;stroke:#52664d;stroke-width:0;stroke-dasharray:none;stroke-opacity:1"
           transform="translate(787.08553,309.91561)"
           inkscape:export-filename="todosauna.png"
           inkscape:export-xdpi="96"
           inkscape:export-ydpi="96">
          <path
             d="m 370.27946,536.58029 c -0.88493,-0.32188 -2.41344,-0.8045 -3.37884,-1.20668 -2.33299,-0.72406 -2.41341,-3.29846 -0.16102,-4.02246 2.25252,-0.72406 1.44806,-2.49392 -1.04586,-2.17213 -1.8503,0.24177 -2.09158,-0.0806 -2.49388,-2.81564 -0.16103,-1.6894 0,-3.37881 0.32158,-3.78108 0.40209,-0.48257 0.72405,-1.76985 0.72405,-2.89614 0,-1.12629 0.32202,-2.41346 0.72406,-2.81569 1.44804,-1.52851 1.36764,-6.35544 -0.16103,-7.64256 -1.93075,-1.60896 -2.09164,-8.28618 -0.24109,-10.37786 1.6894,-1.85029 1.93075,-7.80346 0.56312,-12.95212 -1.60894,-6.11405 -1.8503,-7.96434 -1.36758,-10.05607 0.64357,-2.49386 2.09164,-2.65475 2.17209,-0.16118 0,0.96534 0.24111,1.28718 0.48269,0.8045 0.16102,-0.56316 1.20674,-1.04584 2.25256,-1.04584 0.9654,0 2.25253,-0.56316 2.81569,-1.20678 1.28718,-1.60891 4.8269,-1.60891 4.8269,0 0,0.64362 0.88491,1.36763 2.01123,1.68946 2.09165,0.48257 2.33295,0.96534 1.52848,3.05702 -0.72406,1.8503 -4.82691,1.60896 -6.67721,-0.40198 -1.52851,-1.68941 -1.52851,-1.68941 -2.41346,-0.0806 -0.56311,1.04579 -0.56311,1.76985 0.16102,2.4939 1.12625,1.12624 -0.48267,2.49386 -2.81567,2.49386 -1.04582,0 -1.4481,0.64356 -1.4481,2.41346 0,2.57435 1.4481,3.21792 3.37884,1.36762 1.28718,-1.20668 5.22912,-3.78108 5.87268,-3.78108 0.24154,0 0.40208,0.72406 0.40208,1.52851 0,1.8503 1.28718,2.89618 2.01117,1.6894 0.32159,-0.48257 0.0804,-1.44801 -0.48267,-2.09163 -0.48267,-0.64356 -0.80443,-1.20673 -0.64358,-1.36762 3.37882,-1.93069 3.942,-2.01123 7.24034,-1.20673 4.90732,1.12629 7.15994,3.78108 7.15994,8.36662 0,3.70064 -0.96542,4.58551 -2.41347,2.01123 -1.60898,-3.13751 -3.29839,-4.10286 -6.91853,-4.10286 -3.05709,0 -3.94199,0.40199 -6.75764,3.21792 -1.76991,1.7699 -3.21791,3.70065 -3.21791,4.18332 0,0.56312 0.96535,1.76985 2.17206,2.5743 2.09168,1.52851 2.09168,1.52851 4.58555,-1.52846 2.41345,-2.8961 2.81565,-3.05704 6.03362,-2.57436 4.66597,0.56313 5.95315,1.85031 5.39002,5.22911 -0.24154,1.52851 0,3.29836 0.48272,4.10291 1.20671,2.01114 -0.64358,10.29731 -2.57437,11.34316 -2.97659,1.60895 -6.19452,0.96534 -8.3666,-1.68941 -1.12629,-1.36767 -2.09165,-2.81573 -2.09165,-3.21797 0,-1.28716 -2.89613,-0.80444 -4.26376,0.72407 -1.76986,1.93073 -1.68941,2.4939 0.88493,5.47044 4.82688,5.63143 10.29738,6.59676 14.40023,2.57434 2.65481,-2.57434 2.65481,-2.57434 2.65481,0.88496 0,2.73524 -0.48272,3.94201 -2.33302,5.71177 -3.05702,3.13756 -5.87276,3.70068 -9.33197,2.09168 -2.25262,-1.12623 -2.81569,-1.85025 -2.81569,-3.7006 0,-1.36761 -0.32204,-2.41341 -0.80447,-2.41341 -0.40209,0 -0.80448,0.40199 -0.80448,0.80447 0,0.48256 -0.40208,0.80444 -0.88493,0.80444 -0.56317,0 -0.72406,-0.80444 -0.40208,-2.01113 0.48266,-1.93079 -0.56312,-2.81574 -1.52853,-1.20678 -0.88488,1.36762 -3.37879,0.88495 -3.86149,-0.80446 -0.64358,-2.65479 -1.76982,-1.85029 -2.81567,2.09164 -1.20674,4.42464 -0.8045,5.22915 2.25255,4.58558 2.33303,-0.40198 2.33303,-0.40198 1.85032,3.70059 -0.56317,4.66599 0.32158,5.30955 2.89611,2.01119 1.93076,-2.41347 3.37882,-2.17208 5.39004,0.9654 1.44804,2.09162 1.36758,2.17211 -0.40209,3.62018 -1.9307,1.52847 -4.82688,1.85031 -7.72297,0.72401 z m 17.85947,-28.31777 c 0.0804,-2.89609 -0.16103,-3.86149 -1.04582,-3.86149 -0.64358,0 -1.12629,0.40199 -1.12629,0.80446 0,0.48258 -1.04583,0.80451 -2.25248,0.80451 -1.28723,0 -2.89615,0.48257 -3.70067,1.04583 -1.28717,0.96535 -1.12628,1.20669 1.68941,3.13742 1.68939,1.20674 3.78103,2.09168 4.66598,2.01124 1.36767,-0.16119 1.60898,-0.8045 1.76987,-3.94197 z m -14.88287,-0.24177 c 0.64353,-1.44803 1.5285,-2.01119 3.13743,-2.01119 3.7006,0 4.98783,-0.80451 3.78106,-2.25252 -0.88488,-1.04585 -0.64353,-1.20673 2.25256,-0.80451 3.78111,0.48258 5.79233,-0.64357 6.11409,-3.45925 0.16103,-1.52851 -0.16101,-2.01123 -1.76987,-2.17212 -2.33302,-0.24129 -8.52754,3.13752 -8.20571,4.50508 0.0804,0.56312 -0.96536,0.9654 -2.65481,0.9654 -2.25254,0 -2.81569,-0.32139 -2.81569,-1.60896 0,-0.8045 -0.72406,-1.93074 -1.52851,-2.41346 -1.28715,-0.64357 -1.8503,-0.32139 -3.29835,2.01124 -0.9654,1.5285 -2.09165,2.81563 -2.49392,2.81563 -1.28718,0 -0.80449,1.28723 1.52852,3.86153 2.65479,2.97658 4.74644,3.21797 5.9532,0.56313 z"
             id="path102-5-6-3-0-6-6-7-2-7-0"
             style="fill:#796855;fill-opacity:1;stroke:#52664d;stroke-width:0;stroke-dasharray:none;stroke-opacity:1;paint-order:fill markers stroke" />
          <path
             d="m 408.33149,536.41936 c -1.76988,-0.56308 -2.25256,-1.28713 -2.25256,-3.13742 0,-1.36768 0.48268,-2.57441 1.2067,-2.8157 0.64358,-0.32139 1.20674,-0.96539 1.20674,-1.60901 0,-0.724 -1.44806,-1.12628 -4.98778,-1.28712 -4.82692,-0.24128 -4.98779,-0.32139 -6.75768,-3.4593 -1.6894,-3.13747 -2.41339,-8.44706 -1.12628,-8.44706 0.32159,0 1.20677,0.88494 1.93081,2.01122 1.9307,2.89613 5.7922,4.666 8.92972,4.10287 2.57433,-0.48258 7.07943,-4.10287 7.80349,-6.19455 0.56312,-1.44801 -1.76989,-5.55092 -3.05706,-5.55092 -0.56315,0 -1.76987,0.96539 -2.73522,2.25256 -2.57433,3.21797 -4.58557,4.10292 -7.88395,3.29836 -3.45926,-0.724 -4.18327,-1.76984 -4.26374,-5.9531 v -5.63143 c -0.16103,-6.11405 1.85035,-9.25157 5.79226,-9.25157 2.41346,0 6.35543,2.73529 6.35543,4.50515 0,5.14869 10.2169,-1.85035 11.98677,-8.28615 1.2067,-4.34425 1.12629,-6.27494 -0.56313,-7.72306 -2.0112,-1.85034 -2.81568,-1.68945 -2.17208,0.24178 0.40208,1.20673 0.16102,1.60895 -1.04584,1.60895 -1.44806,0 -1.52851,-0.40198 -1.20671,-3.29836 0.48267,-3.13746 0.40208,-3.21791 -1.12631,-2.33301 -0.96535,0.64361 -2.49388,0.8045 -3.78104,0.48258 -1.93076,-0.48258 -2.17212,-0.8849 -1.93076,-3.13743 0.2411,-2.25257 0.64357,-2.65479 3.37879,-3.37885 2.41346,-0.56317 3.53974,-0.48258 5.39004,0.64361 1.28717,0.72406 2.89615,1.12624 3.45927,0.88495 1.44807,-0.56317 2.81568,3.53965 2.97658,8.52746 0.0804,4.18331 -3.21791,14.48068 -4.66599,14.48068 -0.5631,0 -1.0458,0.3214 -1.0458,0.72407 0,0.40198 -0.88495,0.96538 -2.01119,1.20668 -1.04585,0.24128 -2.33303,1.20677 -2.81574,2.09167 -0.48266,0.88496 -1.6894,1.60896 -2.65479,1.60896 -2.25253,0 -4.10283,1.20678 -3.5397,2.25253 0.32202,0.40198 2.01118,0.96544 3.70064,1.28723 2.2525,0.32137 3.13746,0.80439 2.81569,1.5285 -0.16102,0.56312 0.24153,1.60896 1.0458,2.33302 1.36759,1.20673 1.68941,1.04579 4.66598,-2.41346 1.93076,-2.25253 2.81569,-3.78104 2.17216,-4.02248 -1.1263,-0.32138 -1.28722,-3.86147 -0.24109,-4.50504 0.40208,-0.32139 1.12627,1.28713 1.60893,3.45931 0.72405,3.3788 0.56317,4.66598 -0.80448,8.84924 -1.85032,5.39004 -1.60897,11.90637 0.40209,12.63038 1.4481,0.56312 2.49389,9.73424 1.36758,11.10181 -1.04577,1.28718 -12.38898,1.52858 -15.52644,0.3214 z m 7.48167,-2.57426 c 1.28717,-0.0806 2.73523,0.0806 3.29839,0.40199 1.36759,0.88494 3.29838,-2.17213 2.65477,-4.10282 -0.6436,-1.93079 -4.02239,-2.17212 -4.74642,-0.40199 -0.24153,0.64361 -0.96544,1.20678 -1.68945,1.20678 -1.4481,0 -1.4481,-0.0806 -0.40208,-2.73524 0.56317,-1.52852 1.3676,-2.09168 2.81571,-2.09168 2.09163,0 2.33299,-0.72397 1.52846,-3.78103 -0.64353,-2.25258 -1.7698,-2.41347 -2.57428,-0.2413 -0.32203,0.88496 -1.85035,2.25253 -3.37886,3.05703 -3.29838,1.8503 -3.86152,3.05703 -1.60894,3.62019 2.25253,0.56318 2.01121,2.89614 -0.48268,3.78109 -2.33298,0.96534 -1.76986,2.73519 0.64359,1.93069 0.88494,-0.24128 2.73526,-0.56307 3.94197,-0.64352 z M 404.5504,511.48048 c 2.17211,-1.04585 3.86151,-2.25257 3.94197,-2.81574 0,-0.48258 -1.20674,-1.36762 -2.73527,-1.85024 -4.90731,-1.60901 -9.81464,2.41341 -6.75761,5.47043 1.20676,1.20673 1.04582,1.28718 5.55091,-0.80445 z m 2.17211,-8.36667 c 2.09165,-0.64356 2.33298,-1.7698 0.40208,-2.49381 -0.80447,-0.32188 -2.1721,-1.20678 -2.97658,-2.01123 -1.76985,-1.60901 -2.17208,-1.6894 -4.02243,-0.9654 -1.52851,0.56317 -1.76981,4.82688 -0.24152,5.39 1.36763,0.64361 4.666,0.64361 6.83807,0.0806 z"
             id="path104-0-3-1-2-7-6-3-4-7-1"
             style="fill:#796855;fill-opacity:1;stroke:#52664d;stroke-width:0;stroke-dasharray:none;stroke-opacity:1;paint-order:fill markers stroke" />
          <path
             d="m 411.87119,493.13827 c -2.57435,-3.37881 -6.91856,-5.14871 -10.29737,-4.02242 -1.4481,0.48257 -3.21791,1.85034 -3.94196,2.97658 -0.80446,1.20678 -1.60895,1.7699 -2.09165,1.28718 -0.88493,-0.88496 2.09165,-8.20569 4.02239,-9.73425 1.36764,-1.12628 8.12526,-0.64356 10.61919,0.72406 2.25251,1.12628 6.0336,4.98776 7.1599,6.99895 2.2525,4.42471 -2.41346,5.95318 -5.4705,1.7699 z m 1.93075,-3.70059 c -0.40208,-1.04589 -0.80447,-1.12634 -1.44807,-0.48258 -0.48267,0.48258 -0.64358,1.44807 -0.32202,2.25252 0.40208,1.04584 0.80451,1.12633 1.44809,0.48258 0.48268,-0.48258 0.64361,-1.44812 0.3216,-2.25252 z"
             id="path182-3-6-3-3-83-4-2-3-0-4"
             style="fill:#796855;fill-opacity:1;stroke:#52664d;stroke-width:0;stroke-dasharray:none;stroke-opacity:1;paint-order:fill markers stroke" />
        </g>
        <text
           xml:space="preserve"
           style="font-style:normal;font-variant:normal;font-weight:bold;font-stretch:normal;font-size:44.7604px;line-height:0.6;font-family:'Bricolage Grotesque';-inkscape-font-specification:'Bricolage Grotesque Bold';text-align:start;text-anchor:start;fill:#796855;fill-opacity:1;stroke:#796855;stroke-width:0;stroke-linecap:round;stroke-linejoin:bevel;stroke-dasharray:none;stroke-opacity:1;paint-order:fill markers stroke"
           x="1218.8932"
           y="817.39276"
           id="text12565-4"><tspan
             id="tspan12563-6"
             style="font-style:italic;font-variant:normal;font-weight:bold;font-stretch:normal;font-family:Alegreya;-inkscape-font-specification:'Alegreya Bold Italic';fill:#796855;fill-opacity:1;stroke-width:0"
             x="1218.8932"
             y="817.39276">todos</tspan><tspan
             style="font-style:italic;font-variant:normal;font-weight:bold;font-stretch:normal;font-family:Alegreya;-inkscape-font-specification:'Alegreya Bold Italic';fill:#796855;fill-opacity:1;stroke-width:0"
             x="1218.8932"
             y="845.52423"
             id="tspan13303-2"><tspan
               style="font-style:italic;font-variant:normal;font-weight:bold;font-stretch:normal;font-family:Alegreya;-inkscape-font-specification:'Alegreya Bold Italic';fill:#796855;fill-opacity:1;stroke-width:0"
               id="tspan13305-2">a una</tspan></tspan></text>
      </g>
    </g>
  </g>
</svg>
